<?xml version="1.0" encoding="utf-8"?>
<svg xmlns="http://www.w3.org/2000/svg" xmlns:xlink="http://www.w3.org/1999/xlink" width="600" height="400" viewBox="0 0 2400 1600">
<defs>
  <clipPath id="clip200">
    <rect x="0" y="0" width="2400" height="1600"/>
  </clipPath>
</defs>
<path clip-path="url(#clip200)" d="
M0 1600 L2400 1600 L2400 0 L0 0  Z
  " fill="#ffffff" fill-rule="evenodd" fill-opacity="1"/>
<defs>
  <clipPath id="clip201">
    <rect x="480" y="0" width="1681" height="1600"/>
  </clipPath>
</defs>
<path clip-path="url(#clip200)" d="
M251.071 1423.18 L2352.76 1423.18 L2352.76 127.244 L251.071 127.244  Z
  " fill="#ffffff" fill-rule="evenodd" fill-opacity="1"/>
<defs>
  <clipPath id="clip202">
    <rect x="251" y="127" width="2103" height="1297"/>
  </clipPath>
</defs>
<polyline clip-path="url(#clip202)" style="stroke:#000000; stroke-linecap:butt; stroke-linejoin:round; stroke-width:2; stroke-opacity:0.1; fill:none" points="
  270.089,1423.18 270.089,127.244 
  "/>
<polyline clip-path="url(#clip202)" style="stroke:#000000; stroke-linecap:butt; stroke-linejoin:round; stroke-width:2; stroke-opacity:0.1; fill:none" points="
  674.726,1423.18 674.726,127.244 
  "/>
<polyline clip-path="url(#clip202)" style="stroke:#000000; stroke-linecap:butt; stroke-linejoin:round; stroke-width:2; stroke-opacity:0.1; fill:none" points="
  1079.36,1423.18 1079.36,127.244 
  "/>
<polyline clip-path="url(#clip202)" style="stroke:#000000; stroke-linecap:butt; stroke-linejoin:round; stroke-width:2; stroke-opacity:0.1; fill:none" points="
  1484,1423.18 1484,127.244 
  "/>
<polyline clip-path="url(#clip202)" style="stroke:#000000; stroke-linecap:butt; stroke-linejoin:round; stroke-width:2; stroke-opacity:0.1; fill:none" points="
  1888.64,1423.18 1888.64,127.244 
  "/>
<polyline clip-path="url(#clip202)" style="stroke:#000000; stroke-linecap:butt; stroke-linejoin:round; stroke-width:2; stroke-opacity:0.1; fill:none" points="
  2293.27,1423.18 2293.27,127.244 
  "/>
<polyline clip-path="url(#clip200)" style="stroke:#000000; stroke-linecap:butt; stroke-linejoin:round; stroke-width:4; stroke-opacity:1; fill:none" points="
  251.071,1423.18 2352.76,1423.18 
  "/>
<polyline clip-path="url(#clip200)" style="stroke:#000000; stroke-linecap:butt; stroke-linejoin:round; stroke-width:4; stroke-opacity:1; fill:none" points="
  270.089,1423.18 270.089,1407.63 
  "/>
<polyline clip-path="url(#clip200)" style="stroke:#000000; stroke-linecap:butt; stroke-linejoin:round; stroke-width:4; stroke-opacity:1; fill:none" points="
  674.726,1423.18 674.726,1407.63 
  "/>
<polyline clip-path="url(#clip200)" style="stroke:#000000; stroke-linecap:butt; stroke-linejoin:round; stroke-width:4; stroke-opacity:1; fill:none" points="
  1079.36,1423.18 1079.36,1407.63 
  "/>
<polyline clip-path="url(#clip200)" style="stroke:#000000; stroke-linecap:butt; stroke-linejoin:round; stroke-width:4; stroke-opacity:1; fill:none" points="
  1484,1423.18 1484,1407.63 
  "/>
<polyline clip-path="url(#clip200)" style="stroke:#000000; stroke-linecap:butt; stroke-linejoin:round; stroke-width:4; stroke-opacity:1; fill:none" points="
  1888.64,1423.18 1888.64,1407.63 
  "/>
<polyline clip-path="url(#clip200)" style="stroke:#000000; stroke-linecap:butt; stroke-linejoin:round; stroke-width:4; stroke-opacity:1; fill:none" points="
  2293.27,1423.18 2293.27,1407.63 
  "/>
<path clip-path="url(#clip200)" d="M270.089 1452.37 Q266.478 1452.37 264.649 1455.94 Q262.844 1459.48 262.844 1466.61 Q262.844 1473.71 264.649 1477.28 Q266.478 1480.82 270.089 1480.82 Q273.723 1480.82 275.529 1477.28 Q277.358 1473.71 277.358 1466.61 Q277.358 1459.48 275.529 1455.94 Q273.723 1452.37 270.089 1452.37 M270.089 1448.67 Q275.899 1448.67 278.955 1453.27 Q282.034 1457.86 282.034 1466.61 Q282.034 1475.33 278.955 1479.94 Q275.899 1484.52 270.089 1484.52 Q264.279 1484.52 261.2 1479.94 Q258.145 1475.33 258.145 1466.61 Q258.145 1457.86 261.2 1453.27 Q264.279 1448.67 270.089 1448.67 Z" fill="#000000" fill-rule="evenodd" fill-opacity="1" /><path clip-path="url(#clip200)" d="M649.414 1479.92 L657.053 1479.92 L657.053 1453.55 L648.743 1455.22 L648.743 1450.96 L657.006 1449.29 L661.682 1449.29 L661.682 1479.92 L669.321 1479.92 L669.321 1483.85 L649.414 1483.85 L649.414 1479.92 Z" fill="#000000" fill-rule="evenodd" fill-opacity="1" /><path clip-path="url(#clip200)" d="M688.765 1452.37 Q685.154 1452.37 683.326 1455.94 Q681.52 1459.48 681.52 1466.61 Q681.52 1473.71 683.326 1477.28 Q685.154 1480.82 688.765 1480.82 Q692.4 1480.82 694.205 1477.28 Q696.034 1473.71 696.034 1466.61 Q696.034 1459.48 694.205 1455.94 Q692.4 1452.37 688.765 1452.37 M688.765 1448.67 Q694.576 1448.67 697.631 1453.27 Q700.71 1457.86 700.71 1466.61 Q700.71 1475.33 697.631 1479.94 Q694.576 1484.52 688.765 1484.52 Q682.955 1484.52 679.877 1479.94 Q676.821 1475.33 676.821 1466.61 Q676.821 1457.86 679.877 1453.27 Q682.955 1448.67 688.765 1448.67 Z" fill="#000000" fill-rule="evenodd" fill-opacity="1" /><path clip-path="url(#clip200)" d="M1058.14 1479.92 L1074.46 1479.92 L1074.46 1483.85 L1052.51 1483.85 L1052.51 1479.92 Q1055.17 1477.16 1059.76 1472.53 Q1064.36 1467.88 1065.54 1466.54 Q1067.79 1464.01 1068.67 1462.28 Q1069.57 1460.52 1069.57 1458.83 Q1069.57 1456.07 1067.63 1454.34 Q1065.71 1452.6 1062.6 1452.6 Q1060.4 1452.6 1057.95 1453.37 Q1055.52 1454.13 1052.74 1455.68 L1052.74 1450.96 Q1055.57 1449.82 1058.02 1449.25 Q1060.47 1448.67 1062.51 1448.67 Q1067.88 1448.67 1071.08 1451.35 Q1074.27 1454.04 1074.27 1458.53 Q1074.27 1460.66 1073.46 1462.58 Q1072.67 1464.48 1070.57 1467.07 Q1069.99 1467.74 1066.89 1470.96 Q1063.78 1474.15 1058.14 1479.92 Z" fill="#000000" fill-rule="evenodd" fill-opacity="1" /><path clip-path="url(#clip200)" d="M1094.27 1452.37 Q1090.66 1452.37 1088.83 1455.94 Q1087.03 1459.48 1087.03 1466.61 Q1087.03 1473.71 1088.83 1477.28 Q1090.66 1480.82 1094.27 1480.82 Q1097.9 1480.82 1099.71 1477.28 Q1101.54 1473.71 1101.54 1466.61 Q1101.54 1459.48 1099.71 1455.94 Q1097.9 1452.37 1094.27 1452.37 M1094.27 1448.67 Q1100.08 1448.67 1103.14 1453.27 Q1106.21 1457.86 1106.21 1466.61 Q1106.21 1475.33 1103.14 1479.94 Q1100.08 1484.52 1094.27 1484.52 Q1088.46 1484.52 1085.38 1479.94 Q1082.33 1475.33 1082.33 1466.61 Q1082.33 1457.86 1085.38 1453.27 Q1088.46 1448.67 1094.27 1448.67 Z" fill="#000000" fill-rule="evenodd" fill-opacity="1" /><path clip-path="url(#clip200)" d="M1472.84 1465.22 Q1476.2 1465.94 1478.07 1468.2 Q1479.97 1470.47 1479.97 1473.81 Q1479.97 1478.92 1476.45 1481.72 Q1472.94 1484.52 1466.45 1484.52 Q1464.28 1484.52 1461.96 1484.08 Q1459.67 1483.67 1457.22 1482.81 L1457.22 1478.3 Q1459.16 1479.43 1461.48 1480.01 Q1463.79 1480.59 1466.32 1480.59 Q1470.71 1480.59 1473 1478.85 Q1475.32 1477.12 1475.32 1473.81 Q1475.32 1470.75 1473.17 1469.04 Q1471.04 1467.3 1467.22 1467.3 L1463.19 1467.3 L1463.19 1463.46 L1467.4 1463.46 Q1470.85 1463.46 1472.68 1462.09 Q1474.51 1460.7 1474.51 1458.11 Q1474.51 1455.45 1472.61 1454.04 Q1470.74 1452.6 1467.22 1452.6 Q1465.3 1452.6 1463.1 1453.02 Q1460.9 1453.44 1458.26 1454.31 L1458.26 1450.15 Q1460.92 1449.41 1463.24 1449.04 Q1465.57 1448.67 1467.63 1448.67 Q1472.96 1448.67 1476.06 1451.1 Q1479.16 1453.5 1479.16 1457.63 Q1479.16 1460.5 1477.52 1462.49 Q1475.88 1464.45 1472.84 1465.22 Z" fill="#000000" fill-rule="evenodd" fill-opacity="1" /><path clip-path="url(#clip200)" d="M1498.84 1452.37 Q1495.23 1452.37 1493.4 1455.94 Q1491.59 1459.48 1491.59 1466.61 Q1491.59 1473.71 1493.4 1477.28 Q1495.23 1480.82 1498.84 1480.82 Q1502.47 1480.82 1504.28 1477.28 Q1506.11 1473.71 1506.11 1466.61 Q1506.11 1459.48 1504.28 1455.94 Q1502.47 1452.37 1498.84 1452.37 M1498.84 1448.67 Q1504.65 1448.67 1507.7 1453.27 Q1510.78 1457.86 1510.78 1466.61 Q1510.78 1475.33 1507.7 1479.94 Q1504.65 1484.52 1498.84 1484.52 Q1493.03 1484.52 1489.95 1479.94 Q1486.89 1475.33 1486.89 1466.61 Q1486.89 1457.86 1489.95 1453.27 Q1493.03 1448.67 1498.84 1448.67 Z" fill="#000000" fill-rule="evenodd" fill-opacity="1" /><path clip-path="url(#clip200)" d="M1876.81 1453.37 L1865 1471.81 L1876.81 1471.81 L1876.81 1453.37 M1875.58 1449.29 L1881.46 1449.29 L1881.46 1471.81 L1886.39 1471.81 L1886.39 1475.7 L1881.46 1475.7 L1881.46 1483.85 L1876.81 1483.85 L1876.81 1475.7 L1861.21 1475.7 L1861.21 1471.19 L1875.58 1449.29 Z" fill="#000000" fill-rule="evenodd" fill-opacity="1" /><path clip-path="url(#clip200)" d="M1904.12 1452.37 Q1900.51 1452.37 1898.68 1455.94 Q1896.88 1459.48 1896.88 1466.61 Q1896.88 1473.71 1898.68 1477.28 Q1900.51 1480.82 1904.12 1480.82 Q1907.76 1480.82 1909.56 1477.28 Q1911.39 1473.71 1911.39 1466.61 Q1911.39 1459.48 1909.56 1455.94 Q1907.76 1452.37 1904.12 1452.37 M1904.12 1448.67 Q1909.93 1448.67 1912.99 1453.27 Q1916.07 1457.86 1916.07 1466.61 Q1916.07 1475.33 1912.99 1479.94 Q1909.93 1484.52 1904.12 1484.52 Q1898.31 1484.52 1895.23 1479.94 Q1892.18 1475.33 1892.18 1466.61 Q1892.18 1457.86 1895.23 1453.27 Q1898.31 1448.67 1904.12 1448.67 Z" fill="#000000" fill-rule="evenodd" fill-opacity="1" /><path clip-path="url(#clip200)" d="M2267.97 1449.29 L2286.33 1449.29 L2286.33 1453.23 L2272.26 1453.23 L2272.26 1461.7 Q2273.27 1461.35 2274.29 1461.19 Q2275.31 1461 2276.33 1461 Q2282.12 1461 2285.5 1464.18 Q2288.88 1467.35 2288.88 1472.76 Q2288.88 1478.34 2285.4 1481.44 Q2281.93 1484.52 2275.61 1484.52 Q2273.44 1484.52 2271.17 1484.15 Q2268.92 1483.78 2266.52 1483.04 L2266.52 1478.34 Q2268.6 1479.48 2270.82 1480.03 Q2273.04 1480.59 2275.52 1480.59 Q2279.52 1480.59 2281.86 1478.48 Q2284.2 1476.38 2284.2 1472.76 Q2284.2 1469.15 2281.86 1467.05 Q2279.52 1464.94 2275.52 1464.94 Q2273.64 1464.94 2271.77 1465.36 Q2269.92 1465.77 2267.97 1466.65 L2267.97 1449.29 Z" fill="#000000" fill-rule="evenodd" fill-opacity="1" /><path clip-path="url(#clip200)" d="M2308.09 1452.37 Q2304.48 1452.37 2302.65 1455.94 Q2300.84 1459.48 2300.84 1466.61 Q2300.84 1473.71 2302.65 1477.28 Q2304.48 1480.82 2308.09 1480.82 Q2311.72 1480.82 2313.53 1477.28 Q2315.36 1473.71 2315.36 1466.61 Q2315.36 1459.48 2313.53 1455.94 Q2311.72 1452.37 2308.09 1452.37 M2308.09 1448.67 Q2313.9 1448.67 2316.95 1453.27 Q2320.03 1457.86 2320.03 1466.61 Q2320.03 1475.33 2316.95 1479.94 Q2313.9 1484.52 2308.09 1484.52 Q2302.28 1484.52 2299.2 1479.94 Q2296.14 1475.33 2296.14 1466.61 Q2296.14 1457.86 2299.2 1453.27 Q2302.28 1448.67 2308.09 1448.67 Z" fill="#000000" fill-rule="evenodd" fill-opacity="1" /><path clip-path="url(#clip200)" d="M1316.84 1546.53 L1316.84 1568.04 L1310.98 1568.04 L1310.98 1546.72 Q1310.98 1541.66 1309.01 1539.14 Q1307.04 1536.63 1303.09 1536.63 Q1298.35 1536.63 1295.61 1539.65 Q1292.87 1542.68 1292.87 1547.9 L1292.87 1568.04 L1286.99 1568.04 L1286.99 1532.4 L1292.87 1532.4 L1292.87 1537.93 Q1294.97 1534.72 1297.81 1533.13 Q1300.67 1531.54 1304.4 1531.54 Q1310.54 1531.54 1313.69 1535.36 Q1316.84 1539.14 1316.84 1546.53 Z" fill="#000000" fill-rule="evenodd" fill-opacity="1" /><polyline clip-path="url(#clip202)" style="stroke:#000000; stroke-linecap:butt; stroke-linejoin:round; stroke-width:2; stroke-opacity:0.1; fill:none" points="
  251.071,896.334 2352.76,896.334 
  "/>
<polyline clip-path="url(#clip202)" style="stroke:#000000; stroke-linecap:butt; stroke-linejoin:round; stroke-width:2; stroke-opacity:0.1; fill:none" points="
  251.071,367.972 2352.76,367.972 
  "/>
<polyline clip-path="url(#clip200)" style="stroke:#000000; stroke-linecap:butt; stroke-linejoin:round; stroke-width:4; stroke-opacity:1; fill:none" points="
  251.071,1423.18 251.071,127.244 
  "/>
<polyline clip-path="url(#clip200)" style="stroke:#000000; stroke-linecap:butt; stroke-linejoin:round; stroke-width:4; stroke-opacity:1; fill:none" points="
  251.071,896.334 276.291,896.334 
  "/>
<polyline clip-path="url(#clip200)" style="stroke:#000000; stroke-linecap:butt; stroke-linejoin:round; stroke-width:4; stroke-opacity:1; fill:none" points="
  251.071,367.972 276.291,367.972 
  "/>
<path clip-path="url(#clip200)" d="M114.931 916.127 L122.57 916.127 L122.57 889.761 L114.26 891.428 L114.26 887.169 L122.524 885.502 L127.2 885.502 L127.2 916.127 L134.839 916.127 L134.839 920.062 L114.931 920.062 L114.931 916.127 Z" fill="#000000" fill-rule="evenodd" fill-opacity="1" /><path clip-path="url(#clip200)" d="M154.283 888.581 Q150.672 888.581 148.843 892.145 Q147.038 895.687 147.038 902.817 Q147.038 909.923 148.843 913.488 Q150.672 917.029 154.283 917.029 Q157.917 917.029 159.723 913.488 Q161.552 909.923 161.552 902.817 Q161.552 895.687 159.723 892.145 Q157.917 888.581 154.283 888.581 M154.283 884.877 Q160.093 884.877 163.149 889.483 Q166.227 894.067 166.227 902.817 Q166.227 911.543 163.149 916.15 Q160.093 920.733 154.283 920.733 Q148.473 920.733 145.394 916.15 Q142.339 911.543 142.339 902.817 Q142.339 894.067 145.394 889.483 Q148.473 884.877 154.283 884.877 Z" fill="#000000" fill-rule="evenodd" fill-opacity="1" /><path clip-path="url(#clip200)" d="M166.227 878.978 L190.339 878.978 L190.339 882.176 L166.227 882.176 L166.227 878.978 Z" fill="#000000" fill-rule="evenodd" fill-opacity="1" /><path clip-path="url(#clip200)" d="M201.812 889.454 L215.071 889.454 L215.071 892.651 L197.241 892.651 L197.241 889.454 Q199.404 887.216 203.128 883.454 Q206.871 879.674 207.83 878.583 Q209.655 876.533 210.369 875.123 Q211.103 873.693 211.103 872.32 Q211.103 870.082 209.523 868.672 Q207.962 867.261 205.442 867.261 Q203.655 867.261 201.661 867.882 Q199.686 868.502 197.43 869.762 L197.43 865.926 Q199.724 865.004 201.718 864.534 Q203.711 864.064 205.366 864.064 Q209.73 864.064 212.325 866.245 Q214.921 868.427 214.921 872.076 Q214.921 873.806 214.263 875.367 Q213.623 876.909 211.912 879.016 Q211.441 879.561 208.921 882.176 Q206.401 884.771 201.812 889.454 Z" fill="#000000" fill-rule="evenodd" fill-opacity="1" /><path clip-path="url(#clip200)" d="M144.366 387.765 L152.004 387.765 L152.004 361.399 L143.694 363.066 L143.694 358.807 L151.958 357.14 L156.634 357.14 L156.634 387.765 L164.273 387.765 L164.273 391.7 L144.366 391.7 L144.366 387.765 Z" fill="#000000" fill-rule="evenodd" fill-opacity="1" /><path clip-path="url(#clip200)" d="M183.717 360.219 Q180.106 360.219 178.277 363.783 Q176.472 367.325 176.472 374.455 Q176.472 381.561 178.277 385.126 Q180.106 388.668 183.717 388.668 Q187.351 388.668 189.157 385.126 Q190.986 381.561 190.986 374.455 Q190.986 367.325 189.157 363.783 Q187.351 360.219 183.717 360.219 M183.717 356.515 Q189.527 356.515 192.583 361.121 Q195.662 365.705 195.662 374.455 Q195.662 383.181 192.583 387.788 Q189.527 392.371 183.717 392.371 Q177.907 392.371 174.828 387.788 Q171.773 383.181 171.773 374.455 Q171.773 365.705 174.828 361.121 Q177.907 356.515 183.717 356.515 Z" fill="#000000" fill-rule="evenodd" fill-opacity="1" /><path clip-path="url(#clip200)" d="M205.366 338.711 Q202.432 338.711 200.947 341.607 Q199.48 344.485 199.48 350.278 Q199.48 356.052 200.947 358.948 Q202.432 361.826 205.366 361.826 Q208.319 361.826 209.786 358.948 Q211.272 356.052 211.272 350.278 Q211.272 344.485 209.786 341.607 Q208.319 338.711 205.366 338.711 M205.366 335.702 Q210.087 335.702 212.57 339.444 Q215.071 343.168 215.071 350.278 Q215.071 357.368 212.57 361.111 Q210.087 364.835 205.366 364.835 Q200.646 364.835 198.144 361.111 Q195.662 357.368 195.662 350.278 Q195.662 343.168 198.144 339.444 Q200.646 335.702 205.366 335.702 Z" fill="#000000" fill-rule="evenodd" fill-opacity="1" /><path clip-path="url(#clip200)" d="M16.4842 1541.69 L16.4842 1501.49 L21.895 1501.49 L21.895 1518.36 L64.0042 1518.36 L64.0042 1524.82 L21.895 1524.82 L21.895 1541.69 L16.4842 1541.69 Z" fill="#000000" fill-rule="evenodd" fill-opacity="1" /><path clip-path="url(#clip200)" d="M28.3562 1497.54 L28.3562 1491.69 L64.0042 1491.69 L64.0042 1497.54 L28.3562 1497.54 M14.479 1497.54 L14.479 1491.69 L21.895 1491.69 L21.895 1497.54 L14.479 1497.54 Z" fill="#000000" fill-rule="evenodd" fill-opacity="1" /><path clip-path="url(#clip200)" d="M35.1993 1451.68 Q31.2526 1449.48 29.3747 1446.43 Q27.4968 1443.37 27.4968 1439.23 Q27.4968 1433.66 31.4117 1430.64 Q35.2948 1427.62 42.4881 1427.62 L64.0042 1427.62 L64.0042 1433.51 L42.679 1433.51 Q37.5546 1433.51 35.072 1435.32 Q32.5894 1437.13 32.5894 1440.86 Q32.5894 1445.41 35.6131 1448.05 Q38.6368 1450.69 43.8567 1450.69 L64.0042 1450.69 L64.0042 1456.58 L42.679 1456.58 Q37.5228 1456.58 35.072 1458.4 Q32.5894 1460.21 32.5894 1464 Q32.5894 1468.49 35.6449 1471.13 Q38.6686 1473.77 43.8567 1473.77 L64.0042 1473.77 L64.0042 1479.66 L28.3562 1479.66 L28.3562 1473.77 L33.8944 1473.77 Q30.616 1471.76 29.0564 1468.96 Q27.4968 1466.16 27.4968 1462.31 Q27.4968 1458.43 29.4702 1455.72 Q31.4436 1452.98 35.1993 1451.68 Z" fill="#000000" fill-rule="evenodd" fill-opacity="1" /><path clip-path="url(#clip200)" d="M44.7161 1385.44 L47.5806 1385.44 L47.5806 1412.37 Q53.6281 1411.99 56.8109 1408.74 Q59.9619 1405.46 59.9619 1399.64 Q59.9619 1396.27 59.1344 1393.12 Q58.3069 1389.93 56.6518 1386.81 L62.1899 1386.81 Q63.5267 1389.96 64.227 1393.27 Q64.9272 1396.58 64.9272 1399.99 Q64.9272 1408.52 59.9619 1413.52 Q54.9967 1418.48 46.5303 1418.48 Q37.7774 1418.48 32.6531 1413.77 Q27.4968 1409.03 27.4968 1401.01 Q27.4968 1393.82 32.1438 1389.65 Q36.7589 1385.44 44.7161 1385.44 M42.9973 1391.3 Q38.1912 1391.36 35.3266 1394.01 Q32.4621 1396.62 32.4621 1400.95 Q32.4621 1405.85 35.2312 1408.81 Q38.0002 1411.73 43.0292 1412.18 L42.9973 1391.3 Z" fill="#000000" fill-rule="evenodd" fill-opacity="1" /><path clip-path="url(#clip200)" d="M18.2347 1349.32 L28.3562 1349.32 L28.3562 1337.26 L32.9077 1337.26 L32.9077 1349.32 L52.2594 1349.32 Q56.6199 1349.32 57.8613 1348.14 Q59.1026 1346.93 59.1026 1343.27 L59.1026 1337.26 L64.0042 1337.26 L64.0042 1343.27 Q64.0042 1350.05 61.4897 1352.63 Q58.9434 1355.21 52.2594 1355.21 L32.9077 1355.21 L32.9077 1359.5 L28.3562 1359.5 L28.3562 1355.21 L18.2347 1355.21 L18.2347 1349.32 Z" fill="#000000" fill-rule="evenodd" fill-opacity="1" /><path clip-path="url(#clip200)" d="M32.4621 1315.74 Q32.4621 1320.45 36.1542 1323.19 Q39.8145 1325.93 46.212 1325.93 Q52.6095 1325.93 56.3017 1323.22 Q59.9619 1320.48 59.9619 1315.74 Q59.9619 1311.06 56.2698 1308.32 Q52.5777 1305.59 46.212 1305.59 Q39.8781 1305.59 36.186 1308.32 Q32.4621 1311.06 32.4621 1315.74 M27.4968 1315.74 Q27.4968 1308.1 32.4621 1303.74 Q37.4273 1299.38 46.212 1299.38 Q54.9649 1299.38 59.9619 1303.74 Q64.9272 1308.1 64.9272 1315.74 Q64.9272 1323.41 59.9619 1327.77 Q54.9649 1332.1 46.212 1332.1 Q37.4273 1332.1 32.4621 1327.77 Q27.4968 1323.41 27.4968 1315.74 Z" fill="#000000" fill-rule="evenodd" fill-opacity="1" /><path clip-path="url(#clip200)" d="M29.7248 1243.3 L35.1993 1243.3 Q33.8307 1245.78 33.1623 1248.3 Q32.4621 1250.78 32.4621 1253.32 Q32.4621 1259.02 36.0905 1262.17 Q39.6872 1265.32 46.212 1265.32 Q52.7369 1265.32 56.3653 1262.17 Q59.9619 1259.02 59.9619 1253.32 Q59.9619 1250.78 59.2935 1248.3 Q58.5933 1245.78 57.2247 1243.3 L62.6355 1243.3 Q63.7814 1245.75 64.3543 1248.39 Q64.9272 1251 64.9272 1253.96 Q64.9272 1262.01 59.8664 1266.76 Q54.8057 1271.5 46.212 1271.5 Q37.491 1271.5 32.4939 1266.72 Q27.4968 1261.92 27.4968 1253.58 Q27.4968 1250.87 28.0697 1248.3 Q28.6108 1245.72 29.7248 1243.3 Z" fill="#000000" fill-rule="evenodd" fill-opacity="1" /><path clip-path="url(#clip200)" d="M46.0847 1216.91 Q46.0847 1224.01 47.7079 1226.75 Q49.3312 1229.48 53.2461 1229.48 Q56.3653 1229.48 58.2114 1227.45 Q60.0256 1225.38 60.0256 1221.85 Q60.0256 1216.98 56.5881 1214.05 Q53.1188 1211.09 47.3897 1211.09 L46.0847 1211.09 L46.0847 1216.91 M43.6657 1205.23 L64.0042 1205.23 L64.0042 1211.09 L58.5933 1211.09 Q61.8398 1213.09 63.3994 1216.08 Q64.9272 1219.08 64.9272 1223.41 Q64.9272 1228.88 61.8716 1232.13 Q58.7843 1235.34 53.6281 1235.34 Q47.6125 1235.34 44.5569 1231.33 Q41.5014 1227.29 41.5014 1219.3 L41.5014 1211.09 L40.9285 1211.09 Q36.8862 1211.09 34.6901 1213.76 Q32.4621 1216.4 32.4621 1221.21 Q32.4621 1224.26 33.1941 1227.16 Q33.9262 1230.06 35.3903 1232.73 L29.9795 1232.73 Q28.7381 1229.52 28.1334 1226.49 Q27.4968 1223.47 27.4968 1220.6 Q27.4968 1212.87 31.5072 1209.05 Q35.5176 1205.23 43.6657 1205.23 Z" fill="#000000" fill-rule="evenodd" fill-opacity="1" /><path clip-path="url(#clip200)" d="M14.479 1193.17 L14.479 1187.31 L64.0042 1187.31 L64.0042 1193.17 L14.479 1193.17 Z" fill="#000000" fill-rule="evenodd" fill-opacity="1" /><path clip-path="url(#clip200)" d="M29.7248 1149.4 L35.1993 1149.4 Q33.8307 1151.89 33.1623 1154.4 Q32.4621 1156.88 32.4621 1159.43 Q32.4621 1165.13 36.0905 1168.28 Q39.6872 1171.43 46.212 1171.43 Q52.7369 1171.43 56.3653 1168.28 Q59.9619 1165.13 59.9619 1159.43 Q59.9619 1156.88 59.2935 1154.4 Q58.5933 1151.89 57.2247 1149.4 L62.6355 1149.4 Q63.7814 1151.85 64.3543 1154.5 Q64.9272 1157.11 64.9272 1160.07 Q64.9272 1168.12 59.8664 1172.86 Q54.8057 1177.6 46.212 1177.6 Q37.491 1177.6 32.4939 1172.83 Q27.4968 1168.02 27.4968 1159.68 Q27.4968 1156.98 28.0697 1154.4 Q28.6108 1151.82 29.7248 1149.4 Z" fill="#000000" fill-rule="evenodd" fill-opacity="1" /><path clip-path="url(#clip200)" d="M49.9359 1139.82 L28.3562 1139.82 L28.3562 1133.97 L49.7131 1133.97 Q54.7739 1133.97 57.3202 1131.99 Q59.8346 1130.02 59.8346 1126.07 Q59.8346 1121.33 56.8109 1118.59 Q53.7872 1115.83 48.5673 1115.83 L28.3562 1115.83 L28.3562 1109.97 L64.0042 1109.97 L64.0042 1115.83 L58.5296 1115.83 Q61.7762 1117.96 63.3676 1120.79 Q64.9272 1123.59 64.9272 1127.32 Q64.9272 1133.46 61.1078 1136.64 Q57.2883 1139.82 49.9359 1139.82 M27.4968 1125.09 L27.4968 1125.09 Z" fill="#000000" fill-rule="evenodd" fill-opacity="1" /><path clip-path="url(#clip200)" d="M14.479 1097.91 L14.479 1092.05 L64.0042 1092.05 L64.0042 1097.91 L14.479 1097.91 Z" fill="#000000" fill-rule="evenodd" fill-opacity="1" /><path clip-path="url(#clip200)" d="M46.0847 1063.59 Q46.0847 1070.69 47.7079 1073.43 Q49.3312 1076.17 53.2461 1076.17 Q56.3653 1076.17 58.2114 1074.13 Q60.0256 1072.06 60.0256 1068.53 Q60.0256 1063.66 56.5881 1060.73 Q53.1188 1057.77 47.3897 1057.77 L46.0847 1057.77 L46.0847 1063.59 M43.6657 1051.91 L64.0042 1051.91 L64.0042 1057.77 L58.5933 1057.77 Q61.8398 1059.77 63.3994 1062.77 Q64.9272 1065.76 64.9272 1070.09 Q64.9272 1075.56 61.8716 1078.81 Q58.7843 1082.02 53.6281 1082.02 Q47.6125 1082.02 44.5569 1078.01 Q41.5014 1073.97 41.5014 1065.98 L41.5014 1057.77 L40.9285 1057.77 Q36.8862 1057.77 34.6901 1060.44 Q32.4621 1063.09 32.4621 1067.89 Q32.4621 1070.95 33.1941 1073.84 Q33.9262 1076.74 35.3903 1079.41 L29.9795 1079.41 Q28.7381 1076.2 28.1334 1073.17 Q27.4968 1070.15 27.4968 1067.29 Q27.4968 1059.55 31.5072 1055.73 Q35.5176 1051.91 43.6657 1051.91 Z" fill="#000000" fill-rule="evenodd" fill-opacity="1" /><path clip-path="url(#clip200)" d="M18.2347 1034.06 L28.3562 1034.06 L28.3562 1021.99 L32.9077 1021.99 L32.9077 1034.06 L52.2594 1034.06 Q56.6199 1034.06 57.8613 1032.88 Q59.1026 1031.67 59.1026 1028.01 L59.1026 1021.99 L64.0042 1021.99 L64.0042 1028.01 Q64.0042 1034.79 61.4897 1037.37 Q58.9434 1039.95 52.2594 1039.95 L32.9077 1039.95 L32.9077 1044.24 L28.3562 1044.24 L28.3562 1039.95 L18.2347 1039.95 L18.2347 1034.06 Z" fill="#000000" fill-rule="evenodd" fill-opacity="1" /><path clip-path="url(#clip200)" d="M44.7161 983.8 L47.5806 983.8 L47.5806 1010.73 Q53.6281 1010.35 56.8109 1007.1 Q59.9619 1003.82 59.9619 997.996 Q59.9619 994.622 59.1344 991.471 Q58.3069 988.288 56.6518 985.169 L62.1899 985.169 Q63.5267 988.32 64.227 991.63 Q64.9272 994.94 64.9272 998.346 Q64.9272 1006.88 59.9619 1011.87 Q54.9967 1016.84 46.5303 1016.84 Q37.7774 1016.84 32.6531 1012.13 Q27.4968 1007.39 27.4968 999.364 Q27.4968 992.171 32.1438 988.002 Q36.7589 983.8 44.7161 983.8 M42.9973 989.657 Q38.1912 989.72 35.3266 992.362 Q32.4621 994.972 32.4621 999.301 Q32.4621 1004.2 35.2312 1007.16 Q38.0002 1010.09 43.0292 1010.54 L42.9973 989.657 Z" fill="#000000" fill-rule="evenodd" fill-opacity="1" /><path clip-path="url(#clip200)" d="M14.479 935.421 L19.3487 935.421 L19.3487 941.023 Q19.3487 944.174 20.6219 945.415 Q21.895 946.625 25.2052 946.625 L28.3562 946.625 L28.3562 936.98 L32.9077 936.98 L32.9077 946.625 L64.0042 946.625 L64.0042 952.513 L32.9077 952.513 L32.9077 958.115 L28.3562 958.115 L28.3562 952.513 L25.8736 952.513 Q19.9216 952.513 17.2162 949.744 Q14.479 946.975 14.479 940.959 L14.479 935.421 Z" fill="#000000" fill-rule="evenodd" fill-opacity="1" /><path clip-path="url(#clip200)" d="M28.3562 930.519 L28.3562 924.663 L64.0042 924.663 L64.0042 930.519 L28.3562 930.519 M14.479 930.519 L14.479 924.663 L21.895 924.663 L21.895 930.519 L14.479 930.519 Z" fill="#000000" fill-rule="evenodd" fill-opacity="1" /><path clip-path="url(#clip200)" d="M46.212 886.819 Q39.7508 886.819 36.0905 889.492 Q32.3984 892.134 32.3984 896.781 Q32.3984 901.428 36.0905 904.102 Q39.7508 906.743 46.212 906.743 Q52.6732 906.743 56.3653 904.102 Q60.0256 901.428 60.0256 896.781 Q60.0256 892.134 56.3653 889.492 Q52.6732 886.819 46.212 886.819 M33.7671 906.743 Q30.5842 904.897 29.0564 902.096 Q27.4968 899.264 27.4968 895.349 Q27.4968 888.856 32.6531 884.814 Q37.8093 880.739 46.212 880.739 Q54.6147 880.739 59.771 884.814 Q64.9272 888.856 64.9272 895.349 Q64.9272 899.264 63.3994 902.096 Q61.8398 904.897 58.657 906.743 L64.0042 906.743 L64.0042 912.632 L14.479 912.632 L14.479 906.743 L33.7671 906.743 Z" fill="#000000" fill-rule="evenodd" fill-opacity="1" /><path clip-path="url(#clip200)" d="M14.5426 856.964 Q21.8632 861.229 29.0246 863.297 Q36.186 865.366 43.5384 865.366 Q50.8908 865.366 58.1159 863.297 Q65.3091 861.197 72.5979 856.964 L72.5979 862.056 Q65.1182 866.83 57.8931 869.218 Q50.668 871.573 43.5384 871.573 Q36.4406 871.573 29.2474 869.218 Q22.0542 866.862 14.5426 862.056 L14.5426 856.964 Z" fill="#000000" fill-rule="evenodd" fill-opacity="1" /><path clip-path="url(#clip200)" d="M42.4881 815.968 L64.0042 815.968 L64.0042 821.825 L42.679 821.825 Q37.6183 821.825 35.1038 823.798 Q32.5894 825.772 32.5894 829.718 Q32.5894 834.461 35.6131 837.198 Q38.6368 839.935 43.8567 839.935 L64.0042 839.935 L64.0042 845.824 L28.3562 845.824 L28.3562 839.935 L33.8944 839.935 Q30.6797 837.835 29.0883 835.002 Q27.4968 832.137 27.4968 828.413 Q27.4968 822.27 31.3163 819.119 Q35.1038 815.968 42.4881 815.968 Z" fill="#000000" fill-rule="evenodd" fill-opacity="1" /><path clip-path="url(#clip200)" d="M14.5426 805.21 L14.5426 800.118 Q22.0542 795.344 29.2474 792.988 Q36.4406 790.601 43.5384 790.601 Q50.668 790.601 57.8931 792.988 Q65.1182 795.344 72.5979 800.118 L72.5979 805.21 Q65.3091 800.977 58.1159 798.908 Q50.8908 796.808 43.5384 796.808 Q36.186 796.808 29.0246 798.908 Q21.8632 800.977 14.5426 805.21 Z" fill="#000000" fill-rule="evenodd" fill-opacity="1" /><path clip-path="url(#clip200)" d="M28.3562 758.136 L28.3562 752.28 L64.0042 752.28 L64.0042 758.136 L28.3562 758.136 M14.479 758.136 L14.479 752.28 L21.895 752.28 L21.895 758.136 L14.479 758.136 Z" fill="#000000" fill-rule="evenodd" fill-opacity="1" /><path clip-path="url(#clip200)" d="M42.4881 710.393 L64.0042 710.393 L64.0042 716.25 L42.679 716.25 Q37.6183 716.25 35.1038 718.223 Q32.5894 720.196 32.5894 724.143 Q32.5894 728.886 35.6131 731.623 Q38.6368 734.36 43.8567 734.36 L64.0042 734.36 L64.0042 740.248 L28.3562 740.248 L28.3562 734.36 L33.8944 734.36 Q30.6797 732.259 29.0883 729.427 Q27.4968 726.562 27.4968 722.838 Q27.4968 716.695 31.3163 713.544 Q35.1038 710.393 42.4881 710.393 Z" fill="#000000" fill-rule="evenodd" fill-opacity="1" /><path clip-path="url(#clip200)" d="M29.4065 655.266 L34.9447 655.266 Q33.6716 657.749 33.035 660.422 Q32.3984 663.096 32.3984 665.961 Q32.3984 670.321 33.7352 672.517 Q35.072 674.682 37.7456 674.682 Q39.7826 674.682 40.9603 673.122 Q42.1061 671.562 43.1565 666.852 L43.6021 664.847 Q44.9389 658.608 47.3897 655.998 Q49.8086 653.356 54.1691 653.356 Q59.1344 653.356 62.0308 657.303 Q64.9272 661.218 64.9272 668.093 Q64.9272 670.958 64.3543 674.077 Q63.8132 677.164 62.6992 680.602 L56.6518 680.602 Q58.3387 677.355 59.198 674.204 Q60.0256 671.053 60.0256 667.966 Q60.0256 663.828 58.6251 661.6 Q57.1929 659.372 54.6147 659.372 Q52.2276 659.372 50.9545 660.995 Q49.6813 662.587 48.5037 668.029 L48.0262 670.066 Q46.8804 675.509 44.5251 677.928 Q42.138 680.347 38.0002 680.347 Q32.9713 680.347 30.2341 676.782 Q27.4968 673.217 27.4968 666.661 Q27.4968 663.414 27.9743 660.55 Q28.4517 657.685 29.4065 655.266 Z" fill="#000000" fill-rule="evenodd" fill-opacity="1" /><path clip-path="url(#clip200)" d="M44.7161 613.539 L47.5806 613.539 L47.5806 640.466 Q53.6281 640.084 56.8109 636.837 Q59.9619 633.559 59.9619 627.734 Q59.9619 624.361 59.1344 621.21 Q58.3069 618.027 56.6518 614.908 L62.1899 614.908 Q63.5267 618.059 64.227 621.369 Q64.9272 624.679 64.9272 628.085 Q64.9272 636.615 59.9619 641.612 Q54.9967 646.577 46.5303 646.577 Q37.7774 646.577 32.6531 641.866 Q27.4968 637.124 27.4968 629.103 Q27.4968 621.91 32.1438 617.74 Q36.7589 613.539 44.7161 613.539 M42.9973 619.395 Q38.1912 619.459 35.3266 622.101 Q32.4621 624.711 32.4621 629.039 Q32.4621 633.941 35.2312 636.901 Q38.0002 639.829 43.0292 640.275 L42.9973 619.395 Z" fill="#000000" fill-rule="evenodd" fill-opacity="1" /><path clip-path="url(#clip200)" d="M29.7248 578.273 L35.1993 578.273 Q33.8307 580.756 33.1623 583.27 Q32.4621 585.753 32.4621 588.299 Q32.4621 593.996 36.0905 597.147 Q39.6872 600.298 46.212 600.298 Q52.7369 600.298 56.3653 597.147 Q59.9619 593.996 59.9619 588.299 Q59.9619 585.753 59.2935 583.27 Q58.5933 580.756 57.2247 578.273 L62.6355 578.273 Q63.7814 580.724 64.3543 583.365 Q64.9272 585.975 64.9272 588.935 Q64.9272 596.988 59.8664 601.731 Q54.8057 606.473 46.212 606.473 Q37.491 606.473 32.4939 601.699 Q27.4968 596.893 27.4968 588.554 Q27.4968 585.848 28.0697 583.27 Q28.6108 580.692 29.7248 578.273 Z" fill="#000000" fill-rule="evenodd" fill-opacity="1" /><path clip-path="url(#clip200)" d="M32.4621 554.274 Q32.4621 558.985 36.1542 561.722 Q39.8145 564.459 46.212 564.459 Q52.6095 564.459 56.3017 561.754 Q59.9619 559.017 59.9619 554.274 Q59.9619 549.595 56.2698 546.858 Q52.5777 544.121 46.212 544.121 Q39.8781 544.121 36.186 546.858 Q32.4621 549.595 32.4621 554.274 M27.4968 554.274 Q27.4968 546.635 32.4621 542.275 Q37.4273 537.914 46.212 537.914 Q54.9649 537.914 59.9619 542.275 Q64.9272 546.635 64.9272 554.274 Q64.9272 561.945 59.9619 566.305 Q54.9649 570.634 46.212 570.634 Q37.4273 570.634 32.4621 566.305 Q27.4968 561.945 27.4968 554.274 Z" fill="#000000" fill-rule="evenodd" fill-opacity="1" /><path clip-path="url(#clip200)" d="M42.4881 498.574 L64.0042 498.574 L64.0042 504.431 L42.679 504.431 Q37.6183 504.431 35.1038 506.404 Q32.5894 508.377 32.5894 512.324 Q32.5894 517.067 35.6131 519.804 Q38.6368 522.541 43.8567 522.541 L64.0042 522.541 L64.0042 528.429 L28.3562 528.429 L28.3562 522.541 L33.8944 522.541 Q30.6797 520.44 29.0883 517.608 Q27.4968 514.743 27.4968 511.019 Q27.4968 504.876 31.3163 501.725 Q35.1038 498.574 42.4881 498.574 Z" fill="#000000" fill-rule="evenodd" fill-opacity="1" /><path clip-path="url(#clip200)" d="M33.7671 463.436 L14.479 463.436 L14.479 457.579 L64.0042 457.579 L64.0042 463.436 L58.657 463.436 Q61.8398 465.282 63.3994 468.114 Q64.9272 470.915 64.9272 474.862 Q64.9272 481.323 59.771 485.397 Q54.6147 489.439 46.212 489.439 Q37.8093 489.439 32.6531 485.397 Q27.4968 481.323 27.4968 474.862 Q27.4968 470.915 29.0564 468.114 Q30.5842 465.282 33.7671 463.436 M46.212 483.392 Q52.6732 483.392 56.3653 480.75 Q60.0256 478.077 60.0256 473.43 Q60.0256 468.783 56.3653 466.109 Q52.6732 463.436 46.212 463.436 Q39.7508 463.436 36.0905 466.109 Q32.3984 468.783 32.3984 473.43 Q32.3984 478.077 36.0905 480.75 Q39.7508 483.392 46.212 483.392 Z" fill="#000000" fill-rule="evenodd" fill-opacity="1" /><path clip-path="url(#clip200)" d="M29.4065 422.791 L34.9447 422.791 Q33.6716 425.273 33.035 427.947 Q32.3984 430.62 32.3984 433.485 Q32.3984 437.845 33.7352 440.042 Q35.072 442.206 37.7456 442.206 Q39.7826 442.206 40.9603 440.646 Q42.1061 439.087 43.1565 434.376 L43.6021 432.371 Q44.9389 426.133 47.3897 423.523 Q49.8086 420.881 54.1691 420.881 Q59.1344 420.881 62.0308 424.828 Q64.9272 428.742 64.9272 435.617 Q64.9272 438.482 64.3543 441.601 Q63.8132 444.689 62.6992 448.126 L56.6518 448.126 Q58.3387 444.88 59.198 441.729 Q60.0256 438.577 60.0256 435.49 Q60.0256 431.352 58.6251 429.124 Q57.1929 426.896 54.6147 426.896 Q52.2276 426.896 50.9545 428.52 Q49.6813 430.111 48.5037 435.554 L48.0262 437.591 Q46.8804 443.033 44.5251 445.452 Q42.138 447.871 38.0002 447.871 Q32.9713 447.871 30.2341 444.307 Q27.4968 440.742 27.4968 434.185 Q27.4968 430.939 27.9743 428.074 Q28.4517 425.21 29.4065 422.791 Z" fill="#000000" fill-rule="evenodd" fill-opacity="1" /><path clip-path="url(#clip200)" d="M55.9197 410.059 L55.9197 403.343 L61.3942 403.343 L71.5793 408.563 L71.5793 412.669 L61.3942 410.059 L55.9197 410.059 Z" fill="#000000" fill-rule="evenodd" fill-opacity="1" /><path clip-path="url(#clip200)" d="M14.479 370.114 L14.479 364.258 L64.0042 364.258 L64.0042 370.114 L14.479 370.114 Z" fill="#000000" fill-rule="evenodd" fill-opacity="1" /><path clip-path="url(#clip200)" d="M32.4621 338.19 Q32.4621 342.901 36.1542 345.638 Q39.8145 348.375 46.212 348.375 Q52.6095 348.375 56.3017 345.67 Q59.9619 342.933 59.9619 338.19 Q59.9619 333.511 56.2698 330.774 Q52.5777 328.037 46.212 328.037 Q39.8781 328.037 36.186 330.774 Q32.4621 333.511 32.4621 338.19 M27.4968 338.19 Q27.4968 330.551 32.4621 326.191 Q37.4273 321.83 46.212 321.83 Q54.9649 321.83 59.9619 326.191 Q64.9272 330.551 64.9272 338.19 Q64.9272 345.861 59.9619 350.221 Q54.9649 354.55 46.212 354.55 Q37.4273 354.55 32.4621 350.221 Q27.4968 345.861 27.4968 338.19 Z" fill="#000000" fill-rule="evenodd" fill-opacity="1" /><path clip-path="url(#clip200)" d="M45.7664 288.665 Q39.4007 288.665 35.8996 291.307 Q32.3984 293.917 32.3984 298.659 Q32.3984 303.37 35.8996 306.012 Q39.4007 308.622 45.7664 308.622 Q52.1003 308.622 55.6014 306.012 Q59.1026 303.37 59.1026 298.659 Q59.1026 293.917 55.6014 291.307 Q52.1003 288.665 45.7664 288.665 M59.58 282.809 Q68.683 282.809 73.1071 286.851 Q77.5631 290.893 77.5631 299.232 Q77.5631 302.32 77.0857 305.057 Q76.6401 307.794 75.6852 310.372 L69.9879 310.372 Q71.3884 307.794 72.0568 305.28 Q72.7252 302.765 72.7252 300.155 Q72.7252 294.394 69.7015 291.53 Q66.7096 288.665 60.6303 288.665 L57.7339 288.665 Q60.885 290.479 62.4446 293.312 Q64.0042 296.145 64.0042 300.092 Q64.0042 306.648 59.0071 310.659 Q54.01 314.669 45.7664 314.669 Q37.491 314.669 32.4939 310.659 Q27.4968 306.648 27.4968 300.092 Q27.4968 296.145 29.0564 293.312 Q30.616 290.479 33.7671 288.665 L28.3562 288.665 L28.3562 282.809 L59.58 282.809 Z" fill="#000000" fill-rule="evenodd" fill-opacity="1" /><path clip-path="url(#clip200)" d="M58.5933 268.804 L58.5933 258.301 L22.3406 258.301 L24.6323 269.727 L18.7758 269.727 L16.4842 258.364 L16.4842 251.935 L58.5933 251.935 L58.5933 241.432 L64.0042 241.432 L64.0042 268.804 L58.5933 268.804 Z" fill="#000000" fill-rule="evenodd" fill-opacity="1" /><path clip-path="url(#clip200)" d="M20.7174 214.696 Q20.7174 219.661 25.6189 222.175 Q30.4887 224.658 40.2919 224.658 Q50.0633 224.658 54.9649 222.175 Q59.8346 219.661 59.8346 214.696 Q59.8346 209.699 54.9649 207.216 Q50.0633 204.701 40.2919 204.701 Q30.4887 204.701 25.6189 207.216 Q20.7174 209.699 20.7174 214.696 M15.6248 214.696 Q15.6248 206.707 21.9587 202.505 Q28.2607 198.272 40.2919 198.272 Q52.2913 198.272 58.6251 202.505 Q64.9272 206.707 64.9272 214.696 Q64.9272 222.685 58.6251 226.918 Q52.2913 231.119 40.2919 231.119 Q28.2607 231.119 21.9587 226.918 Q15.6248 222.685 15.6248 214.696 Z" fill="#000000" fill-rule="evenodd" fill-opacity="1" /><path clip-path="url(#clip200)" d="M29.4065 144.355 L34.9447 144.355 Q33.6716 146.837 33.035 149.511 Q32.3984 152.184 32.3984 155.049 Q32.3984 159.409 33.7352 161.606 Q35.072 163.77 37.7456 163.77 Q39.7826 163.77 40.9603 162.21 Q42.1061 160.651 43.1565 155.94 L43.6021 153.935 Q44.9389 147.697 47.3897 145.087 Q49.8086 142.445 54.1691 142.445 Q59.1344 142.445 62.0308 146.392 Q64.9272 150.306 64.9272 157.181 Q64.9272 160.046 64.3543 163.165 Q63.8132 166.253 62.6992 169.69 L56.6518 169.69 Q58.3387 166.444 59.198 163.293 Q60.0256 160.141 60.0256 157.054 Q60.0256 152.916 58.6251 150.688 Q57.1929 148.46 54.6147 148.46 Q52.2276 148.46 50.9545 150.084 Q49.6813 151.675 48.5037 157.118 L48.0262 159.155 Q46.8804 164.597 44.5251 167.016 Q42.138 169.435 38.0002 169.435 Q32.9713 169.435 30.2341 165.871 Q27.4968 162.306 27.4968 155.749 Q27.4968 152.503 27.9743 149.638 Q28.4517 146.773 29.4065 144.355 Z" fill="#000000" fill-rule="evenodd" fill-opacity="1" /><path clip-path="url(#clip200)" d="M29.7248 107.465 L35.1993 107.465 Q33.8307 109.948 33.1623 112.462 Q32.4621 114.945 32.4621 117.491 Q32.4621 123.189 36.0905 126.34 Q39.6872 129.491 46.212 129.491 Q52.7369 129.491 56.3653 126.34 Q59.9619 123.189 59.9619 117.491 Q59.9619 114.945 59.2935 112.462 Q58.5933 109.948 57.2247 107.465 L62.6355 107.465 Q63.7814 109.916 64.3543 112.558 Q64.9272 115.168 64.9272 118.128 Q64.9272 126.18 59.8664 130.923 Q54.8057 135.665 46.212 135.665 Q37.491 135.665 32.4939 130.891 Q27.4968 126.085 27.4968 117.746 Q27.4968 115.04 28.0697 112.462 Q28.6108 109.884 29.7248 107.465 Z" fill="#000000" fill-rule="evenodd" fill-opacity="1" /><path clip-path="url(#clip200)" d="M46.0847 81.0794 Q46.0847 88.1772 47.7079 90.9144 Q49.3312 93.6517 53.2461 93.6517 Q56.3653 93.6517 58.2114 91.6146 Q60.0256 89.5458 60.0256 86.0128 Q60.0256 81.1431 56.5881 78.2148 Q53.1188 75.2548 47.3897 75.2548 L46.0847 75.2548 L46.0847 81.0794 M43.6657 69.3983 L64.0042 69.3983 L64.0042 75.2548 L58.5933 75.2548 Q61.8398 77.26 63.3994 80.2519 Q64.9272 83.2437 64.9272 87.5724 Q64.9272 93.0469 61.8716 96.2934 Q58.7843 99.5081 53.6281 99.5081 Q47.6125 99.5081 44.5569 95.4977 Q41.5014 91.4555 41.5014 83.4665 L41.5014 75.2548 L40.9285 75.2548 Q36.8862 75.2548 34.6901 77.9284 Q32.4621 80.5701 32.4621 85.3763 Q32.4621 88.4318 33.1941 91.3282 Q33.9262 94.2246 35.3903 96.8982 L29.9795 96.8982 Q28.7381 93.6835 28.1334 90.6598 Q27.4968 87.6361 27.4968 84.7715 Q27.4968 77.0372 31.5072 73.2178 Q35.5176 69.3983 43.6657 69.3983 Z" fill="#000000" fill-rule="evenodd" fill-opacity="1" /><path clip-path="url(#clip200)" d="M14.479 57.3353 L14.479 51.4789 L64.0042 51.4789 L64.0042 57.3353 L14.479 57.3353 Z" fill="#000000" fill-rule="evenodd" fill-opacity="1" /><path clip-path="url(#clip200)" d="M44.7161 8.73315 L47.5806 8.73315 L47.5806 35.6601 Q53.6281 35.2781 56.8109 32.0316 Q59.9619 28.7533 59.9619 22.9287 Q59.9619 19.5548 59.1344 16.4038 Q58.3069 13.221 56.6518 10.1018 L62.1899 10.1018 Q63.5267 13.2528 64.227 16.563 Q64.9272 19.8731 64.9272 23.2788 Q64.9272 31.8088 59.9619 36.8059 Q54.9967 41.7712 46.5303 41.7712 Q37.7774 41.7712 32.6531 37.0605 Q27.4968 32.3181 27.4968 24.2973 Q27.4968 17.1041 32.1438 12.9345 Q36.7589 8.73315 44.7161 8.73315 M42.9973 14.5896 Q38.1912 14.6533 35.3266 17.295 Q32.4621 19.905 32.4621 24.2336 Q32.4621 29.1352 35.2312 32.0953 Q38.0002 35.0235 43.0292 35.4691 L42.9973 14.5896 Z" fill="#000000" fill-rule="evenodd" fill-opacity="1" /><polyline clip-path="url(#clip202)" style="stroke:#009af9; stroke-linecap:butt; stroke-linejoin:round; stroke-width:4; stroke-opacity:1; fill:none" points="
  310.553,1386.5 351.017,1373.68 391.48,1336.34 431.944,1303.29 472.408,1217.11 512.871,1173.87 553.335,1192.26 593.799,1131.01 634.263,1052.59 674.726,1006.19 
  715.19,906.173 755.654,822.948 796.117,720.966 836.581,699.537 877.045,689.789 917.508,633.722 957.972,644.081 998.436,649.834 1038.9,645.333 1079.36,611.627 
  1119.83,616.655 1160.29,611.914 1200.75,589.964 1241.22,533.172 1281.68,574.409 1322.15,571.097 1362.61,558.416 1403.07,567.153 1443.54,569.154 1484,535.463 
  1524.46,549.372 1564.93,547.161 1605.39,539.954 1645.86,510.504 1686.32,505.08 1726.78,484.118 1767.25,483.575 1807.71,462.775 1848.17,492.501 1888.64,479.363 
  1929.1,478.313 1969.56,456.081 2010.03,441.244 2050.49,446.925 2090.96,469.755 2131.42,476.075 2171.88,444.411 2212.35,457.422 2252.81,445.937 2293.27,445.263 
  
  "/>
<polyline clip-path="url(#clip202)" style="stroke:#e26f46; stroke-linecap:butt; stroke-linejoin:round; stroke-width:4; stroke-opacity:1; fill:none" points="
  310.553,660.16 351.017,560.039 391.48,530.666 431.944,496.756 472.408,447.772 512.871,406.339 553.335,357.594 593.799,310.13 634.263,241.995 674.726,163.922 
  
  "/>
<path clip-path="url(#clip200)" d="
M1791.31 325.962 L2282.7 325.962 L2282.7 170.442 L1791.31 170.442  Z
  " fill="#ffffff" fill-rule="evenodd" fill-opacity="1"/>
<polyline clip-path="url(#clip200)" style="stroke:#000000; stroke-linecap:butt; stroke-linejoin:round; stroke-width:4; stroke-opacity:1; fill:none" points="
  1791.31,325.962 2282.7,325.962 2282.7,170.442 1791.31,170.442 1791.31,325.962 
  "/>
<polyline clip-path="url(#clip200)" style="stroke:#009af9; stroke-linecap:butt; stroke-linejoin:round; stroke-width:4; stroke-opacity:1; fill:none" points="
  1814.66,222.282 1954.77,222.282 
  "/>
<path clip-path="url(#clip200)" d="M2006 207.664 L2006 212.595 Q2003.64 210.395 2000.95 209.307 Q1998.29 208.22 1995.28 208.22 Q1989.35 208.22 1986.21 211.854 Q1983.06 215.465 1983.06 222.317 Q1983.06 229.145 1986.21 232.78 Q1989.35 236.391 1995.28 236.391 Q1998.29 236.391 2000.95 235.303 Q2003.64 234.215 2006 232.016 L2006 236.9 Q2003.54 238.567 2000.79 239.4 Q1998.06 240.233 1995 240.233 Q1987.15 240.233 1982.64 235.442 Q1978.13 230.627 1978.13 222.317 Q1978.13 213.983 1982.64 209.192 Q1987.15 204.377 1995 204.377 Q1998.1 204.377 2000.83 205.21 Q2003.59 206.02 2006 207.664 Z" fill="#000000" fill-rule="evenodd" fill-opacity="1" /><path clip-path="url(#clip200)" d="M2023.08 216.622 Q2019.65 216.622 2017.66 219.307 Q2015.67 221.969 2015.67 226.622 Q2015.67 231.275 2017.64 233.96 Q2019.63 236.622 2023.08 236.622 Q2026.48 236.622 2028.47 233.937 Q2030.46 231.252 2030.46 226.622 Q2030.46 222.016 2028.47 219.331 Q2026.48 216.622 2023.08 216.622 M2023.08 213.011 Q2028.64 213.011 2031.81 216.622 Q2034.98 220.233 2034.98 226.622 Q2034.98 232.988 2031.81 236.622 Q2028.64 240.233 2023.08 240.233 Q2017.5 240.233 2014.33 236.622 Q2011.18 232.988 2011.18 226.622 Q2011.18 220.233 2014.33 216.622 Q2017.5 213.011 2023.08 213.011 Z" fill="#000000" fill-rule="evenodd" fill-opacity="1" /><path clip-path="url(#clip200)" d="M2062.22 218.613 Q2063.82 215.743 2066.04 214.377 Q2068.27 213.011 2071.27 213.011 Q2075.33 213.011 2077.52 215.858 Q2079.72 218.682 2079.72 223.914 L2079.72 239.562 L2075.44 239.562 L2075.44 224.053 Q2075.44 220.326 2074.12 218.52 Q2072.8 216.715 2070.09 216.715 Q2066.78 216.715 2064.86 218.914 Q2062.94 221.113 2062.94 224.909 L2062.94 239.562 L2058.66 239.562 L2058.66 224.053 Q2058.66 220.303 2057.34 218.52 Q2056.02 216.715 2053.27 216.715 Q2050 216.715 2048.08 218.937 Q2046.16 221.136 2046.16 224.909 L2046.16 239.562 L2041.88 239.562 L2041.88 213.636 L2046.16 213.636 L2046.16 217.664 Q2047.62 215.28 2049.65 214.145 Q2051.69 213.011 2054.49 213.011 Q2057.32 213.011 2059.28 214.446 Q2061.27 215.882 2062.22 218.613 Z" fill="#000000" fill-rule="evenodd" fill-opacity="1" /><path clip-path="url(#clip200)" d="M2092.34 235.673 L2092.34 249.423 L2088.06 249.423 L2088.06 213.636 L2092.34 213.636 L2092.34 217.571 Q2093.68 215.257 2095.72 214.145 Q2097.78 213.011 2100.63 213.011 Q2105.35 213.011 2108.29 216.761 Q2111.25 220.511 2111.25 226.622 Q2111.25 232.733 2108.29 236.483 Q2105.35 240.233 2100.63 240.233 Q2097.78 240.233 2095.72 239.122 Q2093.68 237.988 2092.34 235.673 M2106.83 226.622 Q2106.83 221.923 2104.89 219.261 Q2102.96 216.576 2099.58 216.576 Q2096.2 216.576 2094.26 219.261 Q2092.34 221.923 2092.34 226.622 Q2092.34 231.321 2094.26 234.006 Q2096.2 236.668 2099.58 236.668 Q2102.96 236.668 2104.89 234.006 Q2106.83 231.321 2106.83 226.622 Z" fill="#000000" fill-rule="evenodd" fill-opacity="1" /><path clip-path="url(#clip200)" d="M2118.31 213.636 L2122.57 213.636 L2122.57 239.562 L2118.31 239.562 L2118.31 213.636 M2118.31 203.544 L2122.57 203.544 L2122.57 208.937 L2118.31 208.937 L2118.31 203.544 Z" fill="#000000" fill-rule="evenodd" fill-opacity="1" /><path clip-path="url(#clip200)" d="M2131.48 203.544 L2135.74 203.544 L2135.74 239.562 L2131.48 239.562 L2131.48 203.544 Z" fill="#000000" fill-rule="evenodd" fill-opacity="1" /><path clip-path="url(#clip200)" d="M2166.83 225.534 L2166.83 227.618 L2147.25 227.618 Q2147.52 232.016 2149.88 234.33 Q2152.27 236.622 2156.51 236.622 Q2158.96 236.622 2161.25 236.02 Q2163.57 235.418 2165.83 234.215 L2165.83 238.243 Q2163.54 239.215 2161.13 239.724 Q2158.73 240.233 2156.25 240.233 Q2150.05 240.233 2146.41 236.622 Q2142.8 233.011 2142.8 226.854 Q2142.8 220.488 2146.23 216.761 Q2149.68 213.011 2155.51 213.011 Q2160.74 213.011 2163.77 216.391 Q2166.83 219.747 2166.83 225.534 M2162.57 224.284 Q2162.52 220.789 2160.6 218.706 Q2158.7 216.622 2155.56 216.622 Q2151.99 216.622 2149.84 218.636 Q2147.71 220.65 2147.39 224.307 L2162.57 224.284 Z" fill="#000000" fill-rule="evenodd" fill-opacity="1" /><path clip-path="url(#clip200)" d="M2190.88 217.571 L2190.88 203.544 L2195.14 203.544 L2195.14 239.562 L2190.88 239.562 L2190.88 235.673 Q2189.54 237.988 2187.48 239.122 Q2185.44 240.233 2182.57 240.233 Q2177.87 240.233 2174.91 236.483 Q2171.97 232.733 2171.97 226.622 Q2171.97 220.511 2174.91 216.761 Q2177.87 213.011 2182.57 213.011 Q2185.44 213.011 2187.48 214.145 Q2189.54 215.257 2190.88 217.571 M2176.37 226.622 Q2176.37 231.321 2178.29 234.006 Q2180.23 236.668 2183.61 236.668 Q2186.99 236.668 2188.94 234.006 Q2190.88 231.321 2190.88 226.622 Q2190.88 221.923 2188.94 219.261 Q2186.99 216.576 2183.61 216.576 Q2180.23 216.576 2178.29 219.261 Q2176.37 221.923 2176.37 226.622 Z" fill="#000000" fill-rule="evenodd" fill-opacity="1" /><polyline clip-path="url(#clip200)" style="stroke:#e26f46; stroke-linecap:butt; stroke-linejoin:round; stroke-width:4; stroke-opacity:1; fill:none" points="
  1814.66,274.122 1954.77,274.122 
  "/>
<path clip-path="url(#clip200)" d="M1978.13 256.842 L1982.8 256.842 L1982.8 291.402 L1978.13 291.402 L1978.13 256.842 Z" fill="#000000" fill-rule="evenodd" fill-opacity="1" /><path clip-path="url(#clip200)" d="M2013.47 275.754 L2013.47 291.402 L2009.21 291.402 L2009.21 275.893 Q2009.21 272.212 2007.78 270.384 Q2006.34 268.555 2003.47 268.555 Q2000.02 268.555 1998.03 270.754 Q1996.04 272.953 1996.04 276.749 L1996.04 291.402 L1991.76 291.402 L1991.76 265.476 L1996.04 265.476 L1996.04 269.504 Q1997.57 267.166 1999.63 266.009 Q2001.71 264.851 2004.42 264.851 Q2008.89 264.851 2011.18 267.629 Q2013.47 270.384 2013.47 275.754 Z" fill="#000000" fill-rule="evenodd" fill-opacity="1" /><path clip-path="url(#clip200)" d="M2026.18 258.115 L2026.18 265.476 L2034.96 265.476 L2034.96 268.786 L2026.18 268.786 L2026.18 282.86 Q2026.18 286.032 2027.04 286.934 Q2027.92 287.837 2030.58 287.837 L2034.96 287.837 L2034.96 291.402 L2030.58 291.402 Q2025.65 291.402 2023.77 289.573 Q2021.9 287.721 2021.9 282.86 L2021.9 268.786 L2018.77 268.786 L2018.77 265.476 L2021.9 265.476 L2021.9 258.115 L2026.18 258.115 Z" fill="#000000" fill-rule="evenodd" fill-opacity="1" /><path clip-path="url(#clip200)" d="M2062.73 277.374 L2062.73 279.458 L2043.15 279.458 Q2043.43 283.856 2045.79 286.17 Q2048.17 288.462 2052.41 288.462 Q2054.86 288.462 2057.15 287.86 Q2059.47 287.258 2061.74 286.055 L2061.74 290.083 Q2059.45 291.055 2057.04 291.564 Q2054.63 292.073 2052.15 292.073 Q2045.95 292.073 2042.32 288.462 Q2038.71 284.851 2038.71 278.694 Q2038.71 272.328 2042.13 268.601 Q2045.58 264.851 2051.41 264.851 Q2056.64 264.851 2059.68 268.231 Q2062.73 271.587 2062.73 277.374 M2058.47 276.124 Q2058.43 272.629 2056.51 270.546 Q2054.61 268.462 2051.46 268.462 Q2047.89 268.462 2045.74 270.476 Q2043.61 272.49 2043.29 276.147 L2058.47 276.124 Z" fill="#000000" fill-rule="evenodd" fill-opacity="1" /><path clip-path="url(#clip200)" d="M2084.75 269.458 Q2084.03 269.041 2083.17 268.856 Q2082.34 268.647 2081.32 268.647 Q2077.71 268.647 2075.77 271.009 Q2073.84 273.346 2073.84 277.745 L2073.84 291.402 L2069.56 291.402 L2069.56 265.476 L2073.84 265.476 L2073.84 269.504 Q2075.19 267.143 2077.34 266.009 Q2079.49 264.851 2082.57 264.851 Q2083.01 264.851 2083.54 264.921 Q2084.08 264.967 2084.72 265.083 L2084.75 269.458 Z" fill="#000000" fill-rule="evenodd" fill-opacity="1" /><path clip-path="url(#clip200)" d="M2093.33 287.513 L2093.33 301.263 L2089.05 301.263 L2089.05 265.476 L2093.33 265.476 L2093.33 269.411 Q2094.68 267.097 2096.71 265.985 Q2098.77 264.851 2101.62 264.851 Q2106.34 264.851 2109.28 268.601 Q2112.25 272.351 2112.25 278.462 Q2112.25 284.573 2109.28 288.323 Q2106.34 292.073 2101.62 292.073 Q2098.77 292.073 2096.71 290.962 Q2094.68 289.828 2093.33 287.513 M2107.83 278.462 Q2107.83 273.763 2105.88 271.101 Q2103.96 268.416 2100.58 268.416 Q2097.2 268.416 2095.26 271.101 Q2093.33 273.763 2093.33 278.462 Q2093.33 283.161 2095.26 285.846 Q2097.2 288.508 2100.58 288.508 Q2103.96 288.508 2105.88 285.846 Q2107.83 283.161 2107.83 278.462 Z" fill="#000000" fill-rule="evenodd" fill-opacity="1" /><path clip-path="url(#clip200)" d="M2134.33 269.458 Q2133.61 269.041 2132.76 268.856 Q2131.92 268.647 2130.9 268.647 Q2127.29 268.647 2125.35 271.009 Q2123.43 273.346 2123.43 277.745 L2123.43 291.402 L2119.14 291.402 L2119.14 265.476 L2123.43 265.476 L2123.43 269.504 Q2124.77 267.143 2126.92 266.009 Q2129.07 264.851 2132.15 264.851 Q2132.59 264.851 2133.13 264.921 Q2133.66 264.967 2134.31 265.083 L2134.33 269.458 Z" fill="#000000" fill-rule="evenodd" fill-opacity="1" /><path clip-path="url(#clip200)" d="M2159.93 277.374 L2159.93 279.458 L2140.35 279.458 Q2140.63 283.856 2142.99 286.17 Q2145.37 288.462 2149.61 288.462 Q2152.06 288.462 2154.35 287.86 Q2156.67 287.258 2158.94 286.055 L2158.94 290.083 Q2156.64 291.055 2154.24 291.564 Q2151.83 292.073 2149.35 292.073 Q2143.15 292.073 2139.51 288.462 Q2135.9 284.851 2135.9 278.694 Q2135.9 272.328 2139.33 268.601 Q2142.78 264.851 2148.61 264.851 Q2153.84 264.851 2156.88 268.231 Q2159.93 271.587 2159.93 277.374 M2155.67 276.124 Q2155.63 272.629 2153.7 270.546 Q2151.81 268.462 2148.66 268.462 Q2145.09 268.462 2142.94 270.476 Q2140.81 272.49 2140.49 276.147 L2155.67 276.124 Z" fill="#000000" fill-rule="evenodd" fill-opacity="1" /><path clip-path="url(#clip200)" d="M2171.13 258.115 L2171.13 265.476 L2179.91 265.476 L2179.91 268.786 L2171.13 268.786 L2171.13 282.86 Q2171.13 286.032 2171.99 286.934 Q2172.87 287.837 2175.53 287.837 L2179.91 287.837 L2179.91 291.402 L2175.53 291.402 Q2170.6 291.402 2168.73 289.573 Q2166.85 287.721 2166.85 282.86 L2166.85 268.786 L2163.73 268.786 L2163.73 265.476 L2166.85 265.476 L2166.85 258.115 L2171.13 258.115 Z" fill="#000000" fill-rule="evenodd" fill-opacity="1" /><path clip-path="url(#clip200)" d="M2207.69 277.374 L2207.69 279.458 L2188.1 279.458 Q2188.38 283.856 2190.74 286.17 Q2193.13 288.462 2197.36 288.462 Q2199.82 288.462 2202.11 287.86 Q2204.42 287.258 2206.69 286.055 L2206.69 290.083 Q2204.4 291.055 2201.99 291.564 Q2199.58 292.073 2197.11 292.073 Q2190.9 292.073 2187.27 288.462 Q2183.66 284.851 2183.66 278.694 Q2183.66 272.328 2187.08 268.601 Q2190.53 264.851 2196.37 264.851 Q2201.6 264.851 2204.63 268.231 Q2207.69 271.587 2207.69 277.374 M2203.43 276.124 Q2203.38 272.629 2201.46 270.546 Q2199.56 268.462 2196.41 268.462 Q2192.85 268.462 2190.69 270.476 Q2188.57 272.49 2188.24 276.147 L2203.43 276.124 Z" fill="#000000" fill-rule="evenodd" fill-opacity="1" /><path clip-path="url(#clip200)" d="M2231.74 269.411 L2231.74 255.384 L2236 255.384 L2236 291.402 L2231.74 291.402 L2231.74 287.513 Q2230.39 289.828 2228.33 290.962 Q2226.3 292.073 2223.43 292.073 Q2218.73 292.073 2215.76 288.323 Q2212.82 284.573 2212.82 278.462 Q2212.82 272.351 2215.76 268.601 Q2218.73 264.851 2223.43 264.851 Q2226.3 264.851 2228.33 265.985 Q2230.39 267.097 2231.74 269.411 M2217.22 278.462 Q2217.22 283.161 2219.14 285.846 Q2221.09 288.508 2224.47 288.508 Q2227.85 288.508 2229.79 285.846 Q2231.74 283.161 2231.74 278.462 Q2231.74 273.763 2229.79 271.101 Q2227.85 268.416 2224.47 268.416 Q2221.09 268.416 2219.14 271.101 Q2217.22 273.763 2217.22 278.462 Z" fill="#000000" fill-rule="evenodd" fill-opacity="1" /><path clip-path="url(#clip200)" d="
M251.071 80 L2352.76 80 L2352.76 0 L251.071 0  Z
  " fill="#ffffff" fill-rule="evenodd" fill-opacity="1"/>
<defs>
  <clipPath id="clip203">
    <rect x="251" y="0" width="2103" height="81"/>
  </clipPath>
</defs>
<path clip-path="url(#clip200)" d="M287.938 13.824 L346.409 13.824 L346.409 21.6943 L321.873 21.6943 L321.873 82.944 L312.474 82.944 L312.474 21.6943 L287.938 21.6943 L287.938 13.824 Z" fill="#000000" fill-rule="evenodd" fill-opacity="1" /><path clip-path="url(#clip200)" d="M352.15 31.0924 L360.669 31.0924 L360.669 82.944 L352.15 82.944 L352.15 31.0924 M352.15 10.9073 L360.669 10.9073 L360.669 21.6943 L352.15 21.6943 L352.15 10.9073 Z" fill="#000000" fill-rule="evenodd" fill-opacity="1" /><path clip-path="url(#clip200)" d="M418.863 41.0461 Q422.057 35.3054 426.502 32.5739 Q430.946 29.8424 436.965 29.8424 Q445.066 29.8424 449.464 35.5368 Q453.863 41.185 453.863 51.6479 L453.863 82.944 L445.298 82.944 L445.298 51.9256 Q445.298 44.472 442.659 40.8609 Q440.02 37.2498 434.603 37.2498 Q427.983 37.2498 424.141 41.6479 Q420.298 46.046 420.298 53.6386 L420.298 82.944 L411.733 82.944 L411.733 51.9256 Q411.733 44.4257 409.094 40.8609 Q406.455 37.2498 400.946 37.2498 Q394.418 37.2498 390.576 41.6942 Q386.733 46.0923 386.733 53.6386 L386.733 82.944 L378.169 82.944 L378.169 31.0924 L386.733 31.0924 L386.733 39.1479 Q389.65 34.3794 393.724 32.1109 Q397.798 29.8424 403.4 29.8424 Q409.048 29.8424 412.983 32.7128 Q416.965 35.5831 418.863 41.0461 Z" fill="#000000" fill-rule="evenodd" fill-opacity="1" /><path clip-path="url(#clip200)" d="M515.205 54.8886 L515.205 59.0552 L476.038 59.0552 Q476.594 67.8515 481.316 72.4811 Q486.085 77.0644 494.557 77.0644 Q499.464 77.0644 504.047 75.8607 Q508.677 74.657 513.214 72.2496 L513.214 80.3051 Q508.631 82.2496 503.816 83.2681 Q499.001 84.2866 494.048 84.2866 Q481.64 84.2866 474.372 77.0644 Q467.15 69.8422 467.15 57.5275 Q467.15 44.7961 474.001 37.3424 Q480.899 29.8424 492.566 29.8424 Q503.029 29.8424 509.094 36.6017 Q515.205 43.3146 515.205 54.8886 M506.686 52.3886 Q506.594 45.3979 502.751 41.2313 Q498.955 37.0646 492.659 37.0646 Q485.529 37.0646 481.224 41.0924 Q476.964 45.1201 476.316 52.4349 L506.686 52.3886 Z" fill="#000000" fill-rule="evenodd" fill-opacity="1" /><path clip-path="url(#clip200)" d="M567.751 16.3703 L567.751 31.0924 L585.297 31.0924 L585.297 37.7128 L567.751 37.7128 L567.751 65.8608 Q567.751 72.2033 569.464 74.0089 Q571.223 75.8144 576.547 75.8144 L585.297 75.8144 L585.297 82.944 L576.547 82.944 Q566.686 82.944 562.936 79.2866 Q559.186 75.5829 559.186 65.8608 L559.186 37.7128 L552.936 37.7128 L552.936 31.0924 L559.186 31.0924 L559.186 16.3703 L567.751 16.3703 Z" fill="#000000" fill-rule="evenodd" fill-opacity="1" /><path clip-path="url(#clip200)" d="M620.065 56.8793 Q609.741 56.8793 605.76 59.2404 Q601.778 61.6015 601.778 67.2959 Q601.778 71.8329 604.741 74.5181 Q607.751 77.157 612.889 77.157 Q619.973 77.157 624.232 72.157 Q628.538 67.1108 628.538 58.7775 L628.538 56.8793 L620.065 56.8793 M637.056 53.3608 L637.056 82.944 L628.538 82.944 L628.538 75.0737 Q625.621 79.7959 621.269 82.0644 Q616.917 84.2866 610.621 84.2866 Q602.658 84.2866 597.936 79.8422 Q593.26 75.3514 593.26 67.8515 Q593.26 59.1015 599.093 54.6571 Q604.973 50.2127 616.593 50.2127 L628.538 50.2127 L628.538 49.3794 Q628.538 43.4998 624.649 40.3053 Q620.806 37.0646 613.815 37.0646 Q609.371 37.0646 605.158 38.1294 Q600.945 39.1942 597.056 41.3239 L597.056 33.4535 Q601.732 31.648 606.13 30.7684 Q610.528 29.8424 614.695 29.8424 Q625.945 29.8424 631.501 35.6757 Q637.056 41.509 637.056 53.3608 Z" fill="#000000" fill-rule="evenodd" fill-opacity="1" /><path clip-path="url(#clip200)" d="M654.278 10.9073 L662.843 10.9073 L662.843 53.4534 L688.259 31.0924 L699.139 31.0924 L671.639 55.3516 L700.296 82.944 L689.185 82.944 L662.843 57.6201 L662.843 82.944 L654.278 82.944 L654.278 10.9073 Z" fill="#000000" fill-rule="evenodd" fill-opacity="1" /><path clip-path="url(#clip200)" d="M750.481 54.8886 L750.481 59.0552 L711.315 59.0552 Q711.87 67.8515 716.593 72.4811 Q721.361 77.0644 729.833 77.0644 Q734.741 77.0644 739.324 75.8607 Q743.954 74.657 748.491 72.2496 L748.491 80.3051 Q743.907 82.2496 739.093 83.2681 Q734.278 84.2866 729.324 84.2866 Q716.917 84.2866 709.648 77.0644 Q702.426 69.8422 702.426 57.5275 Q702.426 44.7961 709.278 37.3424 Q716.176 29.8424 727.843 29.8424 Q738.305 29.8424 744.37 36.6017 Q750.481 43.3146 750.481 54.8886 M741.963 52.3886 Q741.87 45.3979 738.028 41.2313 Q734.231 37.0646 727.935 37.0646 Q720.806 37.0646 716.5 41.0924 Q712.241 45.1201 711.593 52.4349 L741.963 52.3886 Z" fill="#000000" fill-rule="evenodd" fill-opacity="1" /><path clip-path="url(#clip200)" d="M807.564 51.6479 L807.564 82.944 L799.046 82.944 L799.046 51.9256 Q799.046 44.5646 796.176 40.9072 Q793.305 37.2498 787.564 37.2498 Q780.666 37.2498 776.685 41.6479 Q772.703 46.046 772.703 53.6386 L772.703 82.944 L764.139 82.944 L764.139 31.0924 L772.703 31.0924 L772.703 39.1479 Q775.759 34.472 779.879 32.1572 Q784.046 29.8424 789.463 29.8424 Q798.398 29.8424 802.981 35.398 Q807.564 40.9072 807.564 51.6479 Z" fill="#000000" fill-rule="evenodd" fill-opacity="1" /><path clip-path="url(#clip200)" d="M863.12 16.3703 L863.12 31.0924 L880.666 31.0924 L880.666 37.7128 L863.12 37.7128 L863.12 65.8608 Q863.12 72.2033 864.833 74.0089 Q866.592 75.8144 871.916 75.8144 L880.666 75.8144 L880.666 82.944 L871.916 82.944 Q862.055 82.944 858.305 79.2866 Q854.555 75.5829 854.555 65.8608 L854.555 37.7128 L848.305 37.7128 L848.305 31.0924 L854.555 31.0924 L854.555 16.3703 L863.12 16.3703 Z" fill="#000000" fill-rule="evenodd" fill-opacity="1" /><path clip-path="url(#clip200)" d="M911.962 37.0646 Q905.11 37.0646 901.129 42.435 Q897.147 47.759 897.147 57.0645 Q897.147 66.37 901.082 71.7404 Q905.064 77.0644 911.962 77.0644 Q918.767 77.0644 922.749 71.6941 Q926.73 66.3237 926.73 57.0645 Q926.73 47.8516 922.749 42.4813 Q918.767 37.0646 911.962 37.0646 M911.962 29.8424 Q923.073 29.8424 929.416 37.0646 Q935.758 44.2868 935.758 57.0645 Q935.758 69.7959 929.416 77.0644 Q923.073 84.2866 911.962 84.2866 Q900.805 84.2866 894.462 77.0644 Q888.166 69.7959 888.166 57.0645 Q888.166 44.2868 894.462 37.0646 Q900.805 29.8424 911.962 29.8424 Z" fill="#000000" fill-rule="evenodd" fill-opacity="1" /><path clip-path="url(#clip200)" d="M1017.33 33.0832 L1017.33 41.0461 Q1013.72 39.0553 1010.06 38.0831 Q1006.45 37.0646 1002.75 37.0646 Q994.462 37.0646 989.878 42.3424 Q985.295 47.5738 985.295 57.0645 Q985.295 66.5552 989.878 71.8329 Q994.462 77.0644 1002.75 77.0644 Q1006.45 77.0644 1010.06 76.0922 Q1013.72 75.0737 1017.33 73.0829 L1017.33 80.9533 Q1013.77 82.6199 1009.92 83.4533 Q1006.13 84.2866 1001.82 84.2866 Q990.11 84.2866 983.212 76.9255 Q976.313 69.5644 976.313 57.0645 Q976.313 44.3794 983.258 37.1109 Q990.249 29.8424 1002.38 29.8424 Q1006.31 29.8424 1010.06 30.6758 Q1013.81 31.4628 1017.33 33.0832 Z" fill="#000000" fill-rule="evenodd" fill-opacity="1" /><path clip-path="url(#clip200)" d="M1055.71 56.8793 Q1045.39 56.8793 1041.41 59.2404 Q1037.42 61.6015 1037.42 67.2959 Q1037.42 71.8329 1040.39 74.5181 Q1043.4 77.157 1048.54 77.157 Q1055.62 77.157 1059.88 72.157 Q1064.18 67.1108 1064.18 58.7775 L1064.18 56.8793 L1055.71 56.8793 M1072.7 53.3608 L1072.7 82.944 L1064.18 82.944 L1064.18 75.0737 Q1061.27 79.7959 1056.91 82.0644 Q1052.56 84.2866 1046.27 84.2866 Q1038.3 84.2866 1033.58 79.8422 Q1028.91 75.3514 1028.91 67.8515 Q1028.91 59.1015 1034.74 54.6571 Q1040.62 50.2127 1052.24 50.2127 L1064.18 50.2127 L1064.18 49.3794 Q1064.18 43.4998 1060.29 40.3053 Q1056.45 37.0646 1049.46 37.0646 Q1045.02 37.0646 1040.8 38.1294 Q1036.59 39.1942 1032.7 41.3239 L1032.7 33.4535 Q1037.38 31.648 1041.78 30.7684 Q1046.17 29.8424 1050.34 29.8424 Q1061.59 29.8424 1067.15 35.6757 Q1072.7 41.509 1072.7 53.3608 Z" fill="#000000" fill-rule="evenodd" fill-opacity="1" /><path clip-path="url(#clip200)" d="M1090.25 10.9073 L1098.77 10.9073 L1098.77 82.944 L1090.25 82.944 L1090.25 10.9073 Z" fill="#000000" fill-rule="evenodd" fill-opacity="1" /><path clip-path="url(#clip200)" d="M1153.91 33.0832 L1153.91 41.0461 Q1150.29 39.0553 1146.64 38.0831 Q1143.03 37.0646 1139.32 37.0646 Q1131.03 37.0646 1126.45 42.3424 Q1121.87 47.5738 1121.87 57.0645 Q1121.87 66.5552 1126.45 71.8329 Q1131.03 77.0644 1139.32 77.0644 Q1143.03 77.0644 1146.64 76.0922 Q1150.29 75.0737 1153.91 73.0829 L1153.91 80.9533 Q1150.34 82.6199 1146.5 83.4533 Q1142.7 84.2866 1138.4 84.2866 Q1126.68 84.2866 1119.78 76.9255 Q1112.89 69.5644 1112.89 57.0645 Q1112.89 44.3794 1119.83 37.1109 Q1126.82 29.8424 1138.95 29.8424 Q1142.89 29.8424 1146.64 30.6758 Q1150.39 31.4628 1153.91 33.0832 Z" fill="#000000" fill-rule="evenodd" fill-opacity="1" /><path clip-path="url(#clip200)" d="M1167.84 62.4811 L1167.84 31.0924 L1176.36 31.0924 L1176.36 62.1571 Q1176.36 69.5181 1179.23 73.2218 Q1182.1 76.8792 1187.84 76.8792 Q1194.74 76.8792 1198.72 72.4811 Q1202.75 68.083 1202.75 60.4904 L1202.75 31.0924 L1211.27 31.0924 L1211.27 82.944 L1202.75 82.944 L1202.75 74.9811 Q1199.65 79.7033 1195.53 82.0181 Q1191.45 84.2866 1186.03 84.2866 Q1177.1 84.2866 1172.47 78.7311 Q1167.84 73.1755 1167.84 62.4811 M1189.28 29.8424 L1189.28 29.8424 Z" fill="#000000" fill-rule="evenodd" fill-opacity="1" /><path clip-path="url(#clip200)" d="M1228.81 10.9073 L1237.33 10.9073 L1237.33 82.944 L1228.81 82.944 L1228.81 10.9073 Z" fill="#000000" fill-rule="evenodd" fill-opacity="1" /><path clip-path="url(#clip200)" d="M1278.72 56.8793 Q1268.4 56.8793 1264.41 59.2404 Q1260.43 61.6015 1260.43 67.2959 Q1260.43 71.8329 1263.4 74.5181 Q1266.4 77.157 1271.54 77.157 Q1278.63 77.157 1282.89 72.157 Q1287.19 67.1108 1287.19 58.7775 L1287.19 56.8793 L1278.72 56.8793 M1295.71 53.3608 L1295.71 82.944 L1287.19 82.944 L1287.19 75.0737 Q1284.27 79.7959 1279.92 82.0644 Q1275.57 84.2866 1269.27 84.2866 Q1261.31 84.2866 1256.59 79.8422 Q1251.91 75.3514 1251.91 67.8515 Q1251.91 59.1015 1257.75 54.6571 Q1263.63 50.2127 1275.25 50.2127 L1287.19 50.2127 L1287.19 49.3794 Q1287.19 43.4998 1283.3 40.3053 Q1279.46 37.0646 1272.47 37.0646 Q1268.02 37.0646 1263.81 38.1294 Q1259.6 39.1942 1255.71 41.3239 L1255.71 33.4535 Q1260.39 31.648 1264.78 30.7684 Q1269.18 29.8424 1273.35 29.8424 Q1284.6 29.8424 1290.15 35.6757 Q1295.71 41.509 1295.71 53.3608 Z" fill="#000000" fill-rule="evenodd" fill-opacity="1" /><path clip-path="url(#clip200)" d="M1321.68 16.3703 L1321.68 31.0924 L1339.23 31.0924 L1339.23 37.7128 L1321.68 37.7128 L1321.68 65.8608 Q1321.68 72.2033 1323.39 74.0089 Q1325.15 75.8144 1330.48 75.8144 L1339.23 75.8144 L1339.23 82.944 L1330.48 82.944 Q1320.62 82.944 1316.87 79.2866 Q1313.12 75.5829 1313.12 65.8608 L1313.12 37.7128 L1306.87 37.7128 L1306.87 31.0924 L1313.12 31.0924 L1313.12 16.3703 L1321.68 16.3703 Z" fill="#000000" fill-rule="evenodd" fill-opacity="1" /><path clip-path="url(#clip200)" d="M1394.78 54.8886 L1394.78 59.0552 L1355.62 59.0552 Q1356.17 67.8515 1360.89 72.4811 Q1365.66 77.0644 1374.14 77.0644 Q1379.04 77.0644 1383.63 75.8607 Q1388.26 74.657 1392.79 72.2496 L1392.79 80.3051 Q1388.21 82.2496 1383.39 83.2681 Q1378.58 84.2866 1373.63 84.2866 Q1361.22 84.2866 1353.95 77.0644 Q1346.73 69.8422 1346.73 57.5275 Q1346.73 44.7961 1353.58 37.3424 Q1360.48 29.8424 1372.14 29.8424 Q1382.61 29.8424 1388.67 36.6017 Q1394.78 43.3146 1394.78 54.8886 M1386.26 52.3886 Q1386.17 45.3979 1382.33 41.2313 Q1378.53 37.0646 1372.24 37.0646 Q1365.11 37.0646 1360.8 41.0924 Q1356.54 45.1201 1355.89 52.4349 L1386.26 52.3886 Z" fill="#000000" fill-rule="evenodd" fill-opacity="1" /><path clip-path="url(#clip200)" d="M1439.27 13.824 L1479 13.824 L1479 21.6943 L1448.63 21.6943 L1448.63 42.0646 L1476.03 42.0646 L1476.03 49.9349 L1448.63 49.9349 L1448.63 82.944 L1439.27 82.944 L1439.27 13.824 Z" fill="#000000" fill-rule="evenodd" fill-opacity="1" /><path clip-path="url(#clip200)" d="M1486.54 31.0924 L1495.06 31.0924 L1495.06 82.944 L1486.54 82.944 L1486.54 31.0924 M1486.54 10.9073 L1495.06 10.9073 L1495.06 21.6943 L1486.54 21.6943 L1486.54 10.9073 Z" fill="#000000" fill-rule="evenodd" fill-opacity="1" /><path clip-path="url(#clip200)" d="M1550.11 57.0645 Q1550.11 47.6664 1546.22 42.3424 Q1542.38 36.972 1535.62 36.972 Q1528.86 36.972 1524.97 42.3424 Q1521.13 47.6664 1521.13 57.0645 Q1521.13 66.4626 1524.97 71.8329 Q1528.86 77.157 1535.62 77.157 Q1542.38 77.157 1546.22 71.8329 Q1550.11 66.4626 1550.11 57.0645 M1521.13 38.9628 Q1523.81 34.3331 1527.88 32.1109 Q1532 29.8424 1537.7 29.8424 Q1547.14 29.8424 1553.02 37.3424 Q1558.95 44.8424 1558.95 57.0645 Q1558.95 69.2867 1553.02 76.7866 Q1547.14 84.2866 1537.7 84.2866 Q1532 84.2866 1527.88 82.0644 Q1523.81 79.7959 1521.13 75.1663 L1521.13 82.944 L1512.56 82.944 L1512.56 10.9073 L1521.13 10.9073 L1521.13 38.9628 Z" fill="#000000" fill-rule="evenodd" fill-opacity="1" /><path clip-path="url(#clip200)" d="M1593.16 37.0646 Q1586.31 37.0646 1582.33 42.435 Q1578.35 47.759 1578.35 57.0645 Q1578.35 66.37 1582.28 71.7404 Q1586.26 77.0644 1593.16 77.0644 Q1599.97 77.0644 1603.95 71.6941 Q1607.93 66.3237 1607.93 57.0645 Q1607.93 47.8516 1603.95 42.4813 Q1599.97 37.0646 1593.16 37.0646 M1593.16 29.8424 Q1604.27 29.8424 1610.62 37.0646 Q1616.96 44.2868 1616.96 57.0645 Q1616.96 69.7959 1610.62 77.0644 Q1604.27 84.2866 1593.16 84.2866 Q1582 84.2866 1575.66 77.0644 Q1569.37 69.7959 1569.37 57.0645 Q1569.37 44.2868 1575.66 37.0646 Q1582 29.8424 1593.16 29.8424 Z" fill="#000000" fill-rule="evenodd" fill-opacity="1" /><path clip-path="url(#clip200)" d="M1674.18 51.6479 L1674.18 82.944 L1665.66 82.944 L1665.66 51.9256 Q1665.66 44.5646 1662.79 40.9072 Q1659.92 37.2498 1654.18 37.2498 Q1647.28 37.2498 1643.3 41.6479 Q1639.32 46.046 1639.32 53.6386 L1639.32 82.944 L1630.75 82.944 L1630.75 31.0924 L1639.32 31.0924 L1639.32 39.1479 Q1642.37 34.472 1646.5 32.1572 Q1650.66 29.8424 1656.08 29.8424 Q1665.01 29.8424 1669.6 35.398 Q1674.18 40.9072 1674.18 51.6479 Z" fill="#000000" fill-rule="evenodd" fill-opacity="1" /><path clip-path="url(#clip200)" d="M1714.74 56.8793 Q1704.41 56.8793 1700.43 59.2404 Q1696.45 61.6015 1696.45 67.2959 Q1696.45 71.8329 1699.41 74.5181 Q1702.42 77.157 1707.56 77.157 Q1714.64 77.157 1718.9 72.157 Q1723.21 67.1108 1723.21 58.7775 L1723.21 56.8793 L1714.74 56.8793 M1731.73 53.3608 L1731.73 82.944 L1723.21 82.944 L1723.21 75.0737 Q1720.29 79.7959 1715.94 82.0644 Q1711.59 84.2866 1705.29 84.2866 Q1697.33 84.2866 1692.61 79.8422 Q1687.93 75.3514 1687.93 67.8515 Q1687.93 59.1015 1693.76 54.6571 Q1699.64 50.2127 1711.26 50.2127 L1723.21 50.2127 L1723.21 49.3794 Q1723.21 43.4998 1719.32 40.3053 Q1715.48 37.0646 1708.49 37.0646 Q1704.04 37.0646 1699.83 38.1294 Q1695.62 39.1942 1691.73 41.3239 L1691.73 33.4535 Q1696.4 31.648 1700.8 30.7684 Q1705.2 29.8424 1709.37 29.8424 Q1720.62 29.8424 1726.17 35.6757 Q1731.73 41.509 1731.73 53.3608 Z" fill="#000000" fill-rule="evenodd" fill-opacity="1" /><path clip-path="url(#clip200)" d="M1786.59 33.0832 L1786.59 41.0461 Q1782.98 39.0553 1779.32 38.0831 Q1775.71 37.0646 1772 37.0646 Q1763.72 37.0646 1759.13 42.3424 Q1754.55 47.5738 1754.55 57.0645 Q1754.55 66.5552 1759.13 71.8329 Q1763.72 77.0644 1772 77.0644 Q1775.71 77.0644 1779.32 76.0922 Q1782.98 75.0737 1786.59 73.0829 L1786.59 80.9533 Q1783.02 82.6199 1779.18 83.4533 Q1775.38 84.2866 1771.08 84.2866 Q1759.36 84.2866 1752.47 76.9255 Q1745.57 69.5644 1745.57 57.0645 Q1745.57 44.3794 1752.51 37.1109 Q1759.5 29.8424 1771.63 29.8424 Q1775.57 29.8424 1779.32 30.6758 Q1783.07 31.4628 1786.59 33.0832 Z" fill="#000000" fill-rule="evenodd" fill-opacity="1" /><path clip-path="url(#clip200)" d="M1838.72 33.0832 L1838.72 41.0461 Q1835.11 39.0553 1831.45 38.0831 Q1827.84 37.0646 1824.13 37.0646 Q1815.85 37.0646 1811.26 42.3424 Q1806.68 47.5738 1806.68 57.0645 Q1806.68 66.5552 1811.26 71.8329 Q1815.85 77.0644 1824.13 77.0644 Q1827.84 77.0644 1831.45 76.0922 Q1835.11 75.0737 1838.72 73.0829 L1838.72 80.9533 Q1835.15 82.6199 1831.31 83.4533 Q1827.51 84.2866 1823.21 84.2866 Q1811.49 84.2866 1804.6 76.9255 Q1797.7 69.5644 1797.7 57.0645 Q1797.7 44.3794 1804.64 37.1109 Q1811.63 29.8424 1823.76 29.8424 Q1827.7 29.8424 1831.45 30.6758 Q1835.2 31.4628 1838.72 33.0832 Z" fill="#000000" fill-rule="evenodd" fill-opacity="1" /><path clip-path="url(#clip200)" d="M1853.53 31.0924 L1862.05 31.0924 L1862.05 82.944 L1853.53 82.944 L1853.53 31.0924 M1853.53 10.9073 L1862.05 10.9073 L1862.05 21.6943 L1853.53 21.6943 L1853.53 10.9073 Z" fill="#000000" fill-rule="evenodd" fill-opacity="1" /><path clip-path="url(#clip200)" d="M1953.11 51.6479 L1953.11 82.944 L1944.6 82.944 L1944.6 51.9256 Q1944.6 44.5646 1941.72 40.9072 Q1938.85 37.2498 1933.11 37.2498 Q1926.22 37.2498 1922.23 41.6479 Q1918.25 46.046 1918.25 53.6386 L1918.25 82.944 L1909.69 82.944 L1909.69 31.0924 L1918.25 31.0924 L1918.25 39.1479 Q1921.31 34.472 1925.43 32.1572 Q1929.6 29.8424 1935.01 29.8424 Q1943.95 29.8424 1948.53 35.398 Q1953.11 40.9072 1953.11 51.6479 Z" fill="#000000" fill-rule="evenodd" fill-opacity="1" /><path clip-path="url(#clip200)" d="M1969.22 62.4811 L1969.22 31.0924 L1977.74 31.0924 L1977.74 62.1571 Q1977.74 69.5181 1980.61 73.2218 Q1983.48 76.8792 1989.22 76.8792 Q1996.12 76.8792 2000.1 72.4811 Q2004.13 68.083 2004.13 60.4904 L2004.13 31.0924 L2012.65 31.0924 L2012.65 82.944 L2004.13 82.944 L2004.13 74.9811 Q2001.03 79.7033 1996.91 82.0181 Q1992.84 84.2866 1987.42 84.2866 Q1978.48 84.2866 1973.85 78.7311 Q1969.22 73.1755 1969.22 62.4811 M1990.66 29.8424 L1990.66 29.8424 Z" fill="#000000" fill-rule="evenodd" fill-opacity="1" /><path clip-path="url(#clip200)" d="M2070.57 41.0461 Q2073.76 35.3054 2078.21 32.5739 Q2082.65 29.8424 2088.67 29.8424 Q2096.77 29.8424 2101.17 35.5368 Q2105.57 41.185 2105.57 51.6479 L2105.57 82.944 L2097 82.944 L2097 51.9256 Q2097 44.472 2094.36 40.8609 Q2091.72 37.2498 2086.31 37.2498 Q2079.69 37.2498 2075.84 41.6479 Q2072 46.046 2072 53.6386 L2072 82.944 L2063.44 82.944 L2063.44 51.9256 Q2063.44 44.4257 2060.8 40.8609 Q2058.16 37.2498 2052.65 37.2498 Q2046.12 37.2498 2042.28 41.6942 Q2038.44 46.0923 2038.44 53.6386 L2038.44 82.944 L2029.87 82.944 L2029.87 31.0924 L2038.44 31.0924 L2038.44 39.1479 Q2041.35 34.3794 2045.43 32.1109 Q2049.5 29.8424 2055.1 29.8424 Q2060.75 29.8424 2064.69 32.7128 Q2068.67 35.5831 2070.57 41.0461 Z" fill="#000000" fill-rule="evenodd" fill-opacity="1" /><path clip-path="url(#clip200)" d="M2159.78 57.0645 Q2159.78 47.6664 2155.89 42.3424 Q2152.05 36.972 2145.29 36.972 Q2138.53 36.972 2134.64 42.3424 Q2130.8 47.6664 2130.8 57.0645 Q2130.8 66.4626 2134.64 71.8329 Q2138.53 77.157 2145.29 77.157 Q2152.05 77.157 2155.89 71.8329 Q2159.78 66.4626 2159.78 57.0645 M2130.8 38.9628 Q2133.48 34.3331 2137.56 32.1109 Q2141.68 29.8424 2147.37 29.8424 Q2156.82 29.8424 2162.7 37.3424 Q2168.62 44.8424 2168.62 57.0645 Q2168.62 69.2867 2162.7 76.7866 Q2156.82 84.2866 2147.37 84.2866 Q2141.68 84.2866 2137.56 82.0644 Q2133.48 79.7959 2130.8 75.1663 L2130.8 82.944 L2122.23 82.944 L2122.23 10.9073 L2130.8 10.9073 L2130.8 38.9628 Z" fill="#000000" fill-rule="evenodd" fill-opacity="1" /><path clip-path="url(#clip200)" d="M2227.09 54.8886 L2227.09 59.0552 L2187.93 59.0552 Q2188.48 67.8515 2193.21 72.4811 Q2197.97 77.0644 2206.45 77.0644 Q2211.35 77.0644 2215.94 75.8607 Q2220.57 74.657 2225.1 72.2496 L2225.1 80.3051 Q2220.52 82.2496 2215.7 83.2681 Q2210.89 84.2866 2205.94 84.2866 Q2193.53 84.2866 2186.26 77.0644 Q2179.04 69.8422 2179.04 57.5275 Q2179.04 44.7961 2185.89 37.3424 Q2192.79 29.8424 2204.46 29.8424 Q2214.92 29.8424 2220.98 36.6017 Q2227.09 43.3146 2227.09 54.8886 M2218.58 52.3886 Q2218.48 45.3979 2214.64 41.2313 Q2210.84 37.0646 2204.55 37.0646 Q2197.42 37.0646 2193.11 41.0924 Q2188.85 45.1201 2188.21 52.4349 L2218.58 52.3886 Z" fill="#000000" fill-rule="evenodd" fill-opacity="1" /><path clip-path="url(#clip200)" d="M2271.12 39.0553 Q2269.69 38.222 2267.97 37.8516 Q2266.31 37.435 2264.27 37.435 Q2257.05 37.435 2253.16 42.1572 Q2249.32 46.8331 2249.32 55.6293 L2249.32 82.944 L2240.75 82.944 L2240.75 31.0924 L2249.32 31.0924 L2249.32 39.1479 Q2252 34.4257 2256.31 32.1572 Q2260.61 29.8424 2266.77 29.8424 Q2267.65 29.8424 2268.71 29.9813 Q2269.78 30.0739 2271.08 30.3054 L2271.12 39.0553 Z" fill="#000000" fill-rule="evenodd" fill-opacity="1" /><path clip-path="url(#clip200)" d="M2313.11 32.6202 L2313.11 40.6757 Q2309.5 38.8239 2305.61 37.8979 Q2301.72 36.972 2297.56 36.972 Q2291.21 36.972 2288.02 38.9165 Q2284.87 40.8609 2284.87 44.7498 Q2284.87 47.7127 2287.14 49.4257 Q2289.41 51.0923 2296.26 52.6201 L2299.18 53.2682 Q2308.25 55.2127 2312.05 58.7775 Q2315.89 62.296 2315.89 68.6385 Q2315.89 75.8607 2310.15 80.0736 Q2304.45 84.2866 2294.45 84.2866 Q2290.29 84.2866 2285.75 83.4533 Q2281.26 82.6662 2276.26 81.0459 L2276.26 72.2496 Q2280.98 74.7033 2285.57 75.9533 Q2290.15 77.157 2294.64 77.157 Q2300.66 77.157 2303.9 75.12 Q2307.14 73.0366 2307.14 69.2867 Q2307.14 65.8145 2304.78 63.9626 Q2302.46 62.1108 2294.55 60.3978 L2291.58 59.7034 Q2283.67 58.0367 2280.15 54.6108 Q2276.63 51.1386 2276.63 45.1201 Q2276.63 37.8054 2281.82 33.8239 Q2287 29.8424 2296.54 29.8424 Q2301.26 29.8424 2305.43 30.5369 Q2309.59 31.2313 2313.11 32.6202 Z" fill="#000000" fill-rule="evenodd" fill-opacity="1" /></svg>
